RobotoSerifMicro-RegularWideItalic.ufo
<glyph name="percent" format="2">
  <advance width="954"/>
  <unicode hex="0025"/>
  <outline>
    <contour>
      <point x="316" y="750" type="curve" smooth="yes"/>
      <point x="156" y="750"/>
      <point x="92" y="595"/>
      <point x="92" y="496" type="curve" smooth="yes"/>
      <point x="92" y="415"/>
      <point x="146" y="363"/>
      <point x="244" y="363" type="curve" smooth="yes"/>
      <point x="404" y="363"/>
      <point x="469" y="518"/>
      <point x="469" y="617" type="curve" smooth="yes"/>
      <point x="469" y="698"/>
      <point x="413" y="750"/>
    </contour>
    <contour>
      <point x="315" y="706" type="curve" smooth="yes"/>
      <point x="361" y="706"/>
      <point x="383" y="687"/>
      <point x="383" y="632" type="curve" smooth="yes"/>
      <point x="383" y="557"/>
      <point x="346" y="407"/>
      <point x="244" y="407" type="curve" smooth="yes"/>
      <point x="198" y="407"/>
      <point x="178" y="426"/>
      <point x="178" y="481" type="curve" smooth="yes"/>
      <point x="178" y="556"/>
      <point x="213" y="706"/>
    </contour>
    <contour>
      <point x="739" y="371" type="curve" smooth="yes"/>
      <point x="579" y="371"/>
      <point x="516" y="216"/>
      <point x="516" y="117" type="curve" smooth="yes"/>
      <point x="516" y="36"/>
      <point x="570" y="-16"/>
      <point x="668" y="-16" type="curve" smooth="yes"/>
      <point x="827" y="-16"/>
      <point x="893" y="139"/>
      <point x="893" y="238" type="curve" smooth="yes"/>
      <point x="893" y="319"/>
      <point x="836" y="371"/>
    </contour>
    <contour>
      <point x="739" y="327" type="curve" smooth="yes"/>
      <point x="785" y="327"/>
      <point x="806" y="308"/>
      <point x="806" y="253" type="curve" smooth="yes"/>
      <point x="806" y="178"/>
      <point x="770" y="28"/>
      <point x="668" y="28" type="curve" smooth="yes"/>
      <point x="622" y="28"/>
      <point x="602" y="47"/>
      <point x="602" y="102" type="curve" smooth="yes"/>
      <point x="602" y="177"/>
      <point x="637" y="327"/>
    </contour>
    <component base="fraction" xOffset="391"/>
  </outline>
</glyph>
<glyph name="ampersand" format="2">
  <advance width="963"/>
  <unicode hex="0026"/>
  <outline>
    <contour>
      <point x="806" y="0" type="line"/>
      <point x="822" y="56" type="line"/>
      <point x="778" y="56" type="line" smooth="yes"/>
      <point x="722" y="56"/>
      <point x="694" y="65"/>
      <point x="657" y="108" type="curve" smooth="yes"/>
      <point x="443" y="354"/>
      <point x="385" y="424"/>
      <point x="385" y="520" type="curve" smooth="yes"/>
      <point x="385" y="620"/>
      <point x="429" y="667"/>
      <point x="532" y="667" type="curve" smooth="yes"/>
      <point x="609" y="667"/>
      <point x="640" y="640"/>
      <point x="640" y="584" type="curve" smooth="yes"/>
      <point x="640" y="488"/>
      <point x="569" y="467"/>
      <point x="384" y="433" type="curve"/>
      <point x="401" y="390" type="line"/>
      <point x="604" y="421"/>
      <point x="731" y="471"/>
      <point x="731" y="586" type="curve" smooth="yes"/>
      <point x="731" y="668"/>
      <point x="664" y="718"/>
      <point x="532" y="718" type="curve" smooth="yes"/>
      <point x="373" y="718"/>
      <point x="289" y="639"/>
      <point x="289" y="518" type="curve" smooth="yes"/>
      <point x="289" y="393"/>
      <point x="379" y="310"/>
      <point x="632" y="0" type="curve"/>
    </contour>
    <contour>
      <point x="328" y="44" type="curve" smooth="yes"/>
      <point x="201" y="44"/>
      <point x="140" y="91"/>
      <point x="140" y="190" type="curve" smooth="yes"/>
      <point x="140" y="296"/>
      <point x="221" y="362"/>
      <point x="358" y="384" type="curve"/>
      <point x="339" y="428" type="line"/>
      <point x="172" y="403"/>
      <point x="36" y="327"/>
      <point x="36" y="186" type="curve" smooth="yes"/>
      <point x="36" y="64"/>
      <point x="136" y="-10"/>
      <point x="323" y="-10" type="curve" smooth="yes"/>
      <point x="582" y="-10"/>
      <point x="752" y="195"/>
      <point x="809" y="302" type="curve" smooth="yes"/>
      <point x="829" y="341"/>
      <point x="856" y="348"/>
      <point x="915" y="348" type="curve" smooth="yes"/>
      <point x="927" y="348" type="line"/>
      <point x="944" y="404" type="line"/>
      <point x="676" y="404" type="line"/>
      <point x="660" y="348" type="line"/>
      <point x="672" y="348" type="line" smooth="yes"/>
      <point x="697" y="348"/>
      <point x="746" y="345"/>
      <point x="746" y="338" type="curve"/>
      <point x="738" y="266"/>
      <point x="572" y="44"/>
    </contour>
  </outline>
</glyph>
<glyph name="hyphen" format="2">
  <advance width="594"/>
  <unicode hex="002D"/>
  <outline>
    <contour>
      <point x="115" y="333" type="line"/>
      <point x="95" y="264" type="line"/>
      <point x="479" y="264" type="line"/>
      <point x="499" y="333" type="line"/>
    </contour>
  </outline>
</glyph>
<glyph name="two" format="2">
  <advance width="686"/>
  <unicode hex="0032"/>
  <outline>
    <contour>
      <point x="-19" y="0" type="line"/>
      <point x="7" y="86" type="line"/>
      <point x="376" y="299"/>
      <point x="525" y="353"/>
      <point x="525" y="505" type="curve" smooth="yes"/>
      <point x="525" y="578"/>
      <point x="473" y="604"/>
      <point x="378" y="604" type="curve" smooth="yes"/>
      <point x="310" y="604"/>
      <point x="243" y="586"/>
      <point x="196" y="554" type="curve"/>
      <point x="208" y="586"/>
      <point x="256" y="615"/>
      <point x="263" y="610" type="curve" smooth="yes"/>
      <point x="209" y="434" type="line"/>
      <point x="109" y="434" type="line"/>
      <point x="161" y="605" type="line"/>
      <point x="202" y="628"/>
      <point x="289" y="660"/>
      <point x="389" y="660" type="curve" smooth="yes"/>
      <point x="542" y="660"/>
      <point x="627" y="605"/>
      <point x="627" y="505" type="curve" smooth="yes"/>
      <point x="627" y="328"/>
      <point x="359" y="228"/>
      <point x="38" y="46" type="curve"/>
      <point x="34" y="62" type="line"/>
      <point x="314" y="62" type="line" smooth="yes"/>
      <point x="415" y="62"/>
      <point x="457" y="69"/>
      <point x="471" y="103" type="curve" smooth="yes"/>
      <point x="514" y="205" type="line"/>
      <point x="586" y="205" type="line"/>
      <point x="527" y="0" type="line"/>
    </contour>
  </outline>
</glyph>
<glyph name="question" format="2">
  <advance width="698"/>
  <unicode hex="003F"/>
  <outline>
    <contour>
      <point x="267" y="416" type="curve"/>
      <point x="215" y="248" type="line"/>
      <point x="310" y="248" type="line"/>
      <point x="348" y="371" type="line"/>
      <point x="507" y="384"/>
      <point x="681" y="430"/>
      <point x="681" y="602" type="curve" smooth="yes"/>
      <point x="681" y="710"/>
      <point x="585" y="762"/>
      <point x="420" y="762" type="curve" smooth="yes"/>
      <point x="311" y="762"/>
      <point x="219" y="736"/>
      <point x="190" y="725" type="curve"/>
      <point x="142" y="569" type="line"/>
      <point x="239" y="569" type="line"/>
      <point x="281" y="705" type="line"/>
      <point x="221" y="702"/>
      <point x="204" y="677"/>
      <point x="201" y="666" type="curve"/>
      <point x="227" y="679"/>
      <point x="313" y="706"/>
      <point x="416" y="706" type="curve" smooth="yes"/>
      <point x="516" y="706"/>
      <point x="581" y="680"/>
      <point x="581" y="598" type="curve" smooth="yes"/>
      <point x="581" y="452"/>
      <point x="444" y="431"/>
    </contour>
    <component base="period" xOffset="69" yOffset="-1"/>
  </outline>
</glyph>
<glyph name="at" format="2">
  <advance width="1217"/>
  <unicode hex="0040"/>
  <outline>
    <contour>
      <point x="568" y="-158" type="curve" smooth="yes"/>
      <point x="678" y="-158"/>
      <point x="777" y="-137"/>
      <point x="834" y="-116" type="curve"/>
      <point x="829" y="-66" type="line"/>
      <point x="769" y="-87"/>
      <point x="680" y="-108"/>
      <point x="577" y="-108" type="curve" smooth="yes"/>
      <point x="316" y="-108"/>
      <point x="142" y="1"/>
      <point x="142" y="187" type="curve" smooth="yes"/>
      <point x="142" y="433"/>
      <point x="363" y="628"/>
      <point x="687" y="628" type="curve" smooth="yes"/>
      <point x="956" y="628"/>
      <point x="1088" y="534"/>
      <point x="1088" y="377" type="curve" smooth="yes"/>
      <point x="1088" y="234"/>
      <point x="1012" y="97"/>
      <point x="872" y="97" type="curve" smooth="yes"/>
      <point x="799" y="97"/>
      <point x="767" y="115"/>
      <point x="767" y="145" type="curve" smooth="yes"/>
      <point x="767" y="154"/>
      <point x="769" y="162"/>
      <point x="778" y="183" type="curve"/>
      <point x="905" y="468" type="line"/>
      <point x="860" y="468" type="line"/>
      <point x="780" y="373" type="line"/>
      <point x="777" y="381" type="line"/>
      <point x="676" y="151" type="line"/>
      <point x="683" y="154" type="line"/>
      <point x="699" y="92"/>
      <point x="745" y="53"/>
      <point x="869" y="53" type="curve" smooth="yes"/>
      <point x="1052" y="53"/>
      <point x="1162" y="204"/>
      <point x="1162" y="377" type="curve" smooth="yes"/>
      <point x="1162" y="566"/>
      <point x="1000" y="678"/>
      <point x="687" y="678" type="curve" smooth="yes"/>
      <point x="327" y="678"/>
      <point x="68" y="458"/>
      <point x="68" y="187" type="curve" smooth="yes"/>
      <point x="68" y="-27"/>
      <point x="270" y="-158"/>
    </contour>
    <contour>
      <point x="527" y="49" type="curve" smooth="yes"/>
      <point x="613" y="49"/>
      <point x="648" y="91"/>
      <point x="734" y="180" type="curve"/>
      <point x="702" y="188" type="line"/>
      <point x="646" y="136"/>
      <point x="608" y="95"/>
      <point x="545" y="95" type="curve" smooth="yes"/>
      <point x="482" y="95"/>
      <point x="455" y="118"/>
      <point x="455" y="164" type="curve" smooth="yes"/>
      <point x="455" y="242"/>
      <point x="516" y="428"/>
      <point x="654" y="428" type="curve" smooth="yes"/>
      <point x="739" y="428"/>
      <point x="769" y="388"/>
      <point x="776" y="287" type="curve"/>
      <point x="808" y="322" type="line"/>
      <point x="796" y="413"/>
      <point x="768" y="474"/>
      <point x="651" y="474" type="curve" smooth="yes"/>
      <point x="476" y="474"/>
      <point x="369" y="296"/>
      <point x="369" y="177" type="curve" smooth="yes"/>
      <point x="369" y="102"/>
      <point x="422" y="49"/>
    </contour>
  </outline>
</glyph>
<glyph name="J" format="2">
  <advance width="826"/>
  <unicode hex="004A"/>
  <anchor x="533" y="741" name="top"/>
  <outline>
    <contour>
      <point x="615" y="616" type="curve" smooth="yes"/>
      <point x="486" y="192" type="line" smooth="yes"/>
      <point x="448" y="68"/>
      <point x="390" y="32"/>
      <point x="277" y="32" type="curve" smooth="yes"/>
      <point x="170" y="32"/>
      <point x="109" y="66"/>
      <point x="78" y="98" type="curve"/>
      <point x="56" y="120"/>
      <point x="57" y="64"/>
      <point x="107" y="52" type="curve"/>
      <point x="160" y="223" type="line"/>
      <point x="48" y="223" type="line"/>
      <point x="-3" y="57" type="line"/>
      <point x="34" y="30"/>
      <point x="121" y="-25"/>
      <point x="278" y="-25" type="curve" smooth="yes"/>
      <point x="431" y="-25"/>
      <point x="535" y="34"/>
      <point x="582" y="190" type="curve" smooth="yes"/>
      <point x="713" y="616" type="line" smooth="yes"/>
      <point x="721" y="645"/>
      <point x="768" y="652"/>
      <point x="828" y="652" type="curve" smooth="yes"/>
      <point x="854" y="652" type="line"/>
      <point x="872" y="710" type="line"/>
      <point x="508" y="710" type="line"/>
      <point x="490" y="652" type="line"/>
      <point x="522" y="652" type="line" smooth="yes"/>
      <point x="582" y="652"/>
      <point x="624" y="645"/>
    </contour>
  </outline>
</glyph>
<glyph name="K" format="2">
  <advance width="954"/>
  <unicode hex="004B"/>
  <anchor x="489" y="741" name="top"/>
  <anchor x="489" y="0" name="bottom"/>
  <outline>
    <contour>
      <point x="-34" y="0" type="line"/>
      <point x="295" y="0" type="line"/>
      <point x="313" y="58" type="line"/>
      <point x="302" y="58" type="line" smooth="yes"/>
      <point x="259" y="58"/>
      <point x="200" y="61"/>
      <point x="202" y="68" type="curve" smooth="yes"/>
      <point x="379" y="642" type="line" smooth="yes"/>
      <point x="382" y="649"/>
      <point x="441" y="652"/>
      <point x="484" y="652" type="curve" smooth="yes"/>
      <point x="495" y="652" type="line"/>
      <point x="513" y="710" type="line"/>
      <point x="185" y="710" type="line"/>
      <point x="167" y="652" type="line"/>
      <point x="180" y="652" type="line" smooth="yes"/>
      <point x="240" y="652"/>
      <point x="282" y="645"/>
      <point x="273" y="616" type="curve" smooth="yes"/>
      <point x="113" y="94" type="line" smooth="yes"/>
      <point x="104" y="65"/>
      <point x="58" y="58"/>
      <point x="-2" y="58" type="curve" smooth="yes"/>
      <point x="-16" y="58" type="line"/>
    </contour>
    <contour>
      <point x="492" y="0" type="line"/>
      <point x="833" y="0" type="line"/>
      <point x="852" y="58" type="line"/>
      <point x="828" y="58" type="line" smooth="yes"/>
      <point x="783" y="58"/>
      <point x="757" y="60"/>
      <point x="738" y="80" type="curve" smooth="yes"/>
      <point x="424" y="395" type="line"/>
      <point x="422" y="347" type="line"/>
      <point x="839" y="623" type="line" smooth="yes"/>
      <point x="873" y="646"/>
      <point x="900" y="652"/>
      <point x="940" y="652" type="curve" smooth="yes"/>
      <point x="968" y="652" type="line"/>
      <point x="986" y="710" type="line"/>
      <point x="678" y="710" type="line"/>
      <point x="660" y="652" type="line"/>
      <point x="671" y="652" type="line" smooth="yes"/>
      <point x="723" y="652"/>
      <point x="769" y="648"/>
      <point x="766" y="641" type="curve"/>
      <point x="361" y="371" type="line"/>
      <point x="354" y="347" type="line"/>
      <point x="629" y="68" type="line"/>
      <point x="627" y="61"/>
      <point x="574" y="58"/>
      <point x="524" y="58" type="curve" smooth="yes"/>
      <point x="509" y="58" type="line"/>
    </contour>
  </outline>
</glyph>
<glyph name="P" format="2">
  <advance width="835"/>
  <unicode hex="0050"/>
  <outline>
    <contour>
      <point x="286" y="340" type="line"/>
      <point x="383" y="654" type="line"/>
      <point x="555" y="654" type="line"/>
      <point x="665" y="654"/>
      <point x="721" y="604"/>
      <point x="721" y="527" type="curve" smooth="yes"/>
      <point x="721" y="418"/>
      <point x="639" y="340"/>
      <point x="487" y="340" type="curve" smooth="yes"/>
    </contour>
    <contour>
      <point x="185" y="710" type="line"/>
      <point x="167" y="652" type="line"/>
      <point x="180" y="652" type="line" smooth="yes"/>
      <point x="240" y="652"/>
      <point x="282" y="645"/>
      <point x="273" y="616" type="curve" smooth="yes"/>
      <point x="113" y="94" type="line" smooth="yes"/>
      <point x="104" y="65"/>
      <point x="58" y="58"/>
      <point x="-2" y="58" type="curve" smooth="yes"/>
      <point x="-16" y="58" type="line"/>
      <point x="-34" y="0" type="line"/>
      <point x="321" y="0" type="line"/>
      <point x="339" y="58" type="line"/>
      <point x="317" y="58" type="line" smooth="yes"/>
      <point x="258" y="58"/>
      <point x="201" y="61"/>
      <point x="203" y="68" type="curve" smooth="yes"/>
      <point x="270" y="284" type="line"/>
      <point x="473" y="284" type="line" smooth="yes"/>
      <point x="700" y="284"/>
      <point x="826" y="387"/>
      <point x="826" y="529" type="curve" smooth="yes"/>
      <point x="826" y="637"/>
      <point x="731" y="710"/>
      <point x="557" y="710" type="curve"/>
    </contour>
  </outline>
</glyph>
<glyph name="c" format="2">
  <advance width="713"/>
  <unicode hex="0063"/>
  <anchor x="381" y="565" name="top"/>
  <anchor x="391" y="0" name="bottom"/>
  <outline>
    <contour>
      <point x="453" y="575" type="curve" smooth="yes"/>
      <point x="199" y="575"/>
      <point x="56" y="401"/>
      <point x="56" y="209" type="curve" smooth="yes"/>
      <point x="56" y="72"/>
      <point x="163" y="-13"/>
      <point x="341" y="-13" type="curve" smooth="yes"/>
      <point x="459" y="-13"/>
      <point x="560" y="35"/>
      <point x="624" y="119" type="curve"/>
      <point x="569" y="150" type="line"/>
      <point x="520" y="92"/>
      <point x="452" y="45"/>
      <point x="352" y="45" type="curve" smooth="yes"/>
      <point x="223" y="45"/>
      <point x="156" y="98"/>
      <point x="156" y="207" type="curve" smooth="yes"/>
      <point x="156" y="347"/>
      <point x="227" y="517"/>
      <point x="446" y="517" type="curve" smooth="yes"/>
      <point x="543" y="517"/>
      <point x="604" y="495"/>
      <point x="637" y="475" type="curve"/>
      <point x="642" y="488"/>
      <point x="630" y="515"/>
      <point x="590" y="524" type="curve"/>
      <point x="542" y="373" type="line"/>
      <point x="642" y="373" type="line"/>
      <point x="695" y="534" type="line"/>
      <point x="649" y="551"/>
      <point x="573" y="575"/>
    </contour>
  </outline>
</glyph>
<glyph name="j" format="2">
  <advance width="416"/>
  <unicode hex="006A"/>
  <outline>
    <contour>
      <point x="75" y="-88" type="line" smooth="yes"/>
      <point x="53" y="-164"/>
      <point x="19" y="-192"/>
      <point x="-61" y="-192" type="curve" smooth="yes"/>
      <point x="-115" y="-192"/>
      <point x="-159" y="-178"/>
      <point x="-188" y="-168" type="curve"/>
      <point x="-206" y="-226" type="line"/>
      <point x="-185" y="-235"/>
      <point x="-130" y="-250"/>
      <point x="-66" y="-250" type="curve" smooth="yes"/>
      <point x="58" y="-250"/>
      <point x="135" y="-198"/>
      <point x="169" y="-80" type="curve" smooth="yes"/>
      <point x="353" y="565" type="line"/>
      <point x="130" y="565" type="line"/>
      <point x="115" y="511" type="line"/>
      <point x="128" y="509" type="line" smooth="yes"/>
      <point x="190" y="498"/>
      <point x="237" y="485"/>
      <point x="232" y="464" type="curve" smooth="yes"/>
    </contour>
    <contour>
      <point x="324" y="680" type="curve" smooth="yes"/>
      <point x="370" y="680"/>
      <point x="404" y="698"/>
      <point x="404" y="744" type="curve" smooth="yes"/>
      <point x="404" y="787"/>
      <point x="370" y="806"/>
      <point x="324" y="806" type="curve" smooth="yes"/>
      <point x="277" y="806"/>
      <point x="245" y="787"/>
      <point x="245" y="744" type="curve" smooth="yes"/>
      <point x="245" y="698"/>
      <point x="277" y="680"/>
    </contour>
  </outline>
</glyph>
<glyph name="k" format="2">
  <advance width="752"/>
  <unicode hex="006B"/>
  <anchor x="386" y="0" name="bottom"/>
  <outline>
    <contour>
      <point x="545" y="79" type="line" smooth="yes"/>
      <point x="555" y="62"/>
      <point x="564" y="57"/>
      <point x="596" y="57" type="curve" smooth="yes"/>
      <point x="623" y="57"/>
      <point x="650" y="57"/>
      <point x="677" y="57" type="curve"/>
      <point x="666" y="0" type="line"/>
      <point x="633" y="0"/>
      <point x="600" y="0"/>
      <point x="567" y="0" type="curve"/>
      <point x="496" y="0"/>
      <point x="480" y="12"/>
      <point x="452" y="61" type="curve"/>
      <point x="314" y="301" type="line"/>
      <point x="315" y="306" type="line"/>
      <point x="425" y="393"/>
      <point x="536" y="478"/>
      <point x="646" y="565" type="curve"/>
      <point x="754" y="565" type="line"/>
      <point x="754" y="550" type="line"/>
      <point x="623" y="461"/>
      <point x="492" y="371"/>
      <point x="361" y="282" type="curve"/>
      <point x="394" y="336" type="line"/>
    </contour>
    <contour>
      <point x="68" y="0" type="line"/>
      <point x="274" y="682" type="line" smooth="yes"/>
      <point x="279" y="701"/>
      <point x="235" y="714"/>
      <point x="172" y="725" type="curve" smooth="yes"/>
      <point x="162" y="727" type="line"/>
      <point x="176" y="780" type="line"/>
      <point x="397" y="780" type="line"/>
      <point x="160" y="0" type="line"/>
    </contour>
  </outline>
</glyph>
<glyph name="o" format="2">
  <advance width="751"/>
  <unicode hex="006F"/>
  <anchor x="419" y="565" name="top"/>
  <anchor x="526" y="0" name="right"/>
  <anchor x="419" y="0" name="bottom"/>
  <outline>
    <contour>
      <point x="110" y="246" type="curve" smooth="yes"/>
      <point x="110" y="74"/>
      <point x="227" y="-13"/>
      <point x="399" y="-13" type="curve" smooth="yes"/>
      <point x="578" y="-13"/>
      <point x="734" y="121"/>
      <point x="734" y="313" type="curve" smooth="yes"/>
      <point x="734" y="479"/>
      <point x="621" y="575"/>
      <point x="444" y="575" type="curve" smooth="yes"/>
      <point x="267" y="575"/>
      <point x="110" y="437"/>
    </contour>
    <contour>
      <point x="640" y="324" type="curve" smooth="yes"/>
      <point x="640" y="181"/>
      <point x="550" y="51"/>
      <point x="396" y="51" type="curve" smooth="yes"/>
      <point x="337" y="51"/>
      <point x="289" y="66"/>
      <point x="256" y="96" type="curve" smooth="yes"/>
      <point x="222" y="126"/>
      <point x="204" y="173"/>
      <point x="204" y="236" type="curve" smooth="yes"/>
      <point x="204" y="380"/>
      <point x="295" y="511"/>
      <point x="449" y="511" type="curve" smooth="yes"/>
      <point x="509" y="511"/>
      <point x="557" y="495"/>
      <point x="590" y="463" type="curve" smooth="yes"/>
      <point x="622" y="432"/>
      <point x="640" y="385"/>
    </contour>
  </outline>
</glyph>
<glyph name="braceleft" format="2">
  <advance width="551"/>
  <unicode hex="007B"/>
  <outline>
    <contour>
      <point x="390" y="204" type="curve" smooth="yes"/>
      <point x="390" y="246"/>
      <point x="345" y="260"/>
      <point x="156" y="299" type="curve"/>
      <point x="159" y="312" type="line"/>
      <point x="393" y="347"/>
      <point x="428" y="364"/>
      <point x="428" y="404" type="curve" smooth="yes"/>
      <point x="428" y="455"/>
      <point x="328" y="549"/>
      <point x="328" y="614" type="curve" smooth="yes"/>
      <point x="328" y="670"/>
      <point x="370" y="702"/>
      <point x="474" y="702" type="curve" smooth="yes"/>
      <point x="516" y="702"/>
      <point x="554" y="698"/>
      <point x="589" y="692" type="curve"/>
      <point x="585" y="738" type="line"/>
      <point x="547" y="748"/>
      <point x="503" y="751"/>
      <point x="458" y="751" type="curve" smooth="yes"/>
      <point x="305" y="751"/>
      <point x="231" y="691"/>
      <point x="231" y="613" type="curve" smooth="yes"/>
      <point x="231" y="539"/>
      <point x="325" y="455"/>
      <point x="356" y="386" type="curve"/>
      <point x="366" y="403" type="line"/>
      <point x="78" y="333" type="line"/>
      <point x="62" y="281" type="line"/>
      <point x="331" y="201" type="line"/>
      <point x="329" y="217" type="line"/>
      <point x="245" y="140"/>
      <point x="47" y="84"/>
      <point x="47" y="-30" type="curve" smooth="yes"/>
      <point x="47" y="-116"/>
      <point x="125" y="-147"/>
      <point x="255" y="-147" type="curve" smooth="yes"/>
      <point x="290" y="-147"/>
      <point x="341" y="-144"/>
      <point x="364" y="-139" type="curve"/>
      <point x="394" y="-94" type="line"/>
      <point x="366" y="-99"/>
      <point x="325" y="-101"/>
      <point x="282" y="-101" type="curve" smooth="yes"/>
      <point x="194" y="-101"/>
      <point x="144" y="-78"/>
      <point x="144" y="-27" type="curve" smooth="yes"/>
      <point x="144" y="70"/>
      <point x="390" y="134"/>
    </contour>
  </outline>
</glyph>
<glyph name="sterling" format="2">
  <advance width="686"/>
  <unicode hex="00A3"/>
  <outline>
    <contour>
      <point x="449" y="681" type="curve" smooth="yes"/>
      <point x="540" y="681"/>
      <point x="592" y="663"/>
      <point x="643" y="644" type="curve"/>
      <point x="635" y="662"/>
      <point x="615" y="681"/>
      <point x="580" y="686" type="curve"/>
      <point x="531" y="529" type="line"/>
      <point x="631" y="529" type="line"/>
      <point x="682" y="695" type="line"/>
      <point x="654" y="707"/>
      <point x="577" y="735"/>
      <point x="452" y="735" type="curve" smooth="yes"/>
      <point x="274" y="735"/>
      <point x="169" y="659"/>
      <point x="169" y="538" type="curve" smooth="yes"/>
      <point x="169" y="449"/>
      <point x="222" y="381"/>
      <point x="222" y="279" type="curve" smooth="yes"/>
      <point x="222" y="160"/>
      <point x="140" y="92"/>
      <point x="-23" y="53" type="curve"/>
      <point x="-42" y="-12" type="line"/>
      <point x="187" y="38"/>
      <point x="304" y="133"/>
      <point x="304" y="296" type="curve" smooth="yes"/>
      <point x="304" y="390"/>
      <point x="267" y="451"/>
      <point x="267" y="533" type="curve" smooth="yes"/>
      <point x="267" y="623"/>
      <point x="324" y="681"/>
    </contour>
    <contour>
      <point x="60" y="376" type="line"/>
      <point x="44" y="322" type="line"/>
      <point x="524" y="322" type="line"/>
      <point x="539" y="376" type="line"/>
    </contour>
    <contour>
      <point x="417" y="-10" type="curve" smooth="yes"/>
      <point x="526" y="-10"/>
      <point x="581" y="49"/>
      <point x="627" y="168" type="curve"/>
      <point x="569" y="189" type="line"/>
      <point x="530" y="102"/>
      <point x="504" y="71"/>
      <point x="428" y="71" type="curve" smooth="yes"/>
      <point x="343" y="71"/>
      <point x="302" y="108"/>
      <point x="239" y="194" type="curve"/>
      <point x="196" y="147" type="line"/>
      <point x="275" y="40"/>
      <point x="302" y="-10"/>
    </contour>
  </outline>
</glyph>
<glyph name="ordfeminine" format="2">
  <advance width="757"/>
  <unicode hex="00AA"/>
  <outline>
    <contour>
      <point x="522" y="319" type="curve" smooth="yes"/>
      <point x="557" y="319"/>
      <point x="592" y="319"/>
      <point x="627" y="319" type="curve"/>
      <point x="635" y="367" type="line"/>
      <point x="607" y="367"/>
      <point x="578" y="367"/>
      <point x="550" y="367" type="curve" smooth="yes"/>
      <point x="538" y="367"/>
      <point x="533" y="370"/>
      <point x="533" y="378" type="curve" smooth="yes"/>
      <point x="533" y="388"/>
      <point x="540" y="413"/>
      <point x="566" y="496" type="curve" smooth="yes"/>
      <point x="635" y="723" type="line"/>
      <point x="580" y="723" type="line"/>
      <point x="521" y="604" type="line"/>
      <point x="515" y="599" type="line"/>
      <point x="470" y="450" type="line"/>
      <point x="472" y="442" type="line"/>
      <point x="467" y="402"/>
      <point x="464" y="365"/>
      <point x="464" y="357" type="curve" smooth="yes"/>
      <point x="464" y="331"/>
      <point x="485" y="319"/>
    </contour>
    <contour>
      <point x="280" y="310" type="curve" smooth="yes"/>
      <point x="375" y="310"/>
      <point x="448" y="375"/>
      <point x="503" y="460" type="curve"/>
      <point x="488" y="488" type="line"/>
      <point x="423" y="403"/>
      <point x="378" y="359"/>
      <point x="303" y="359" type="curve" smooth="yes"/>
      <point x="240" y="359"/>
      <point x="223" y="391"/>
      <point x="223" y="448" type="curve" smooth="yes"/>
      <point x="223" y="542"/>
      <point x="289" y="681"/>
      <point x="403" y="681" type="curve" smooth="yes"/>
      <point x="475" y="681"/>
      <point x="497" y="634"/>
      <point x="520" y="559" type="curve"/>
      <point x="541" y="586" type="line"/>
      <point x="531" y="666"/>
      <point x="497" y="730"/>
      <point x="396" y="730" type="curve" smooth="yes"/>
      <point x="234" y="730"/>
      <point x="139" y="564"/>
      <point x="139" y="445" type="curve" smooth="yes"/>
      <point x="139" y="367"/>
      <point x="176" y="310"/>
    </contour>
  </outline>
</glyph>
<glyph name="cedilla" format="2">
  <advance width="613"/>
  <unicode hex="00B8"/>
  <anchor x="302" y="34" name="_bottom"/>
  <outline>
    <contour>
      <point x="299" y="-289" type="curve" smooth="yes"/>
      <point x="400" y="-289"/>
      <point x="471" y="-249"/>
      <point x="471" y="-173" type="curve" smooth="yes"/>
      <point x="471" y="-114"/>
      <point x="425" y="-73"/>
      <point x="302" y="-73" type="curve"/>
      <point x="289" y="-90" type="line"/>
      <point x="420" y="5" type="line"/>
      <point x="322" y="5" type="line"/>
      <point x="233" y="-120" type="line"/>
      <point x="272" y="-120" type="line" smooth="yes"/>
      <point x="354" y="-120"/>
      <point x="381" y="-141"/>
      <point x="381" y="-178" type="curve" smooth="yes"/>
      <point x="381" y="-216"/>
      <point x="356" y="-242"/>
      <point x="300" y="-242" type="curve" smooth="yes"/>
      <point x="220" y="-242"/>
      <point x="195" y="-207"/>
      <point x="177" y="-185" type="curve"/>
      <point x="121" y="-213" type="line"/>
      <point x="146" y="-252"/>
      <point x="197" y="-289"/>
    </contour>
  </outline>
</glyph>
<glyph name="AE" format="2">
  <advance width="1349"/>
  <unicode hex="00C6"/>
  <anchor x="798" y="741" name="top"/>
  <outline>
    <contour>
      <point x="310" y="292" type="line"/>
      <point x="271" y="237" type="line"/>
      <point x="724" y="237" type="line"/>
      <point x="718" y="292" type="line"/>
    </contour>
    <contour>
      <point x="793" y="391" type="curve"/>
      <point x="776" y="339" type="line"/>
      <point x="895" y="335"/>
      <point x="1014" y="330"/>
      <point x="1133" y="326" type="curve"/>
      <point x="1156" y="405" type="line"/>
      <point x="1036" y="400"/>
      <point x="914" y="396"/>
    </contour>
    <contour>
      <point x="-70" y="0" type="line"/>
      <point x="240" y="0" type="line"/>
      <point x="258" y="58" type="line"/>
      <point x="246" y="58" type="line" smooth="yes"/>
      <point x="177" y="58"/>
      <point x="138" y="68"/>
      <point x="143" y="81" type="curve"/>
      <point x="761" y="659" type="line"/>
      <point x="798" y="659" type="line"/>
      <point x="625" y="94" type="line"/>
      <point x="617" y="65"/>
      <point x="570" y="58"/>
      <point x="510" y="58" type="curve" smooth="yes"/>
      <point x="497" y="58" type="line"/>
      <point x="479" y="0" type="line"/>
      <point x="1182" y="0" type="line"/>
      <point x="1249" y="224" type="line"/>
      <point x="1176" y="224" type="line"/>
      <point x="1121" y="101" type="line" smooth="yes"/>
      <point x="1105" y="65"/>
      <point x="1059" y="56"/>
      <point x="954" y="56" type="curve" smooth="yes"/>
      <point x="711" y="56" type="line"/>
      <point x="894" y="654" type="line"/>
      <point x="1097" y="654" type="line" smooth="yes"/>
      <point x="1202" y="654"/>
      <point x="1240" y="645"/>
      <point x="1236" y="609" type="curve" smooth="yes"/>
      <point x="1225" y="511" type="line"/>
      <point x="1297" y="511" type="line"/>
      <point x="1353" y="710" type="line"/>
      <point x="537" y="710" type="line"/>
      <point x="519" y="652" type="line"/>
      <point x="532" y="652" type="line" smooth="yes"/>
      <point x="592" y="652"/>
      <point x="634" y="645"/>
      <point x="625" y="616" type="curve"/>
      <point x="94" y="122" type="line" smooth="yes"/>
      <point x="44" y="75"/>
      <point x="5" y="58"/>
      <point x="-45" y="58" type="curve" smooth="yes"/>
      <point x="-52" y="58" type="line"/>
    </contour>
  </outline>
</glyph>
<glyph name="Thorn" format="2">
  <advance width="830"/>
  <unicode hex="00DE"/>
  <outline>
    <contour>
      <point x="323" y="504" type="line"/>
      <point x="503" y="504" type="line" smooth="yes"/>
      <point x="614" y="504"/>
      <point x="670" y="459"/>
      <point x="670" y="391" type="curve" smooth="yes"/>
      <point x="670" y="293"/>
      <point x="601" y="224"/>
      <point x="448" y="224" type="curve" smooth="yes"/>
      <point x="211" y="224" type="line"/>
      <point x="195" y="168" type="line"/>
      <point x="434" y="168" type="line" smooth="yes"/>
      <point x="661" y="168"/>
      <point x="774" y="263"/>
      <point x="774" y="393" type="curve" smooth="yes"/>
      <point x="774" y="492"/>
      <point x="678" y="560"/>
      <point x="504" y="560" type="curve" smooth="yes"/>
      <point x="295" y="560" type="line"/>
    </contour>
    <contour>
      <point x="113" y="94" type="line" smooth="yes"/>
      <point x="104" y="65"/>
      <point x="58" y="58"/>
      <point x="-2" y="58" type="curve" smooth="yes"/>
      <point x="-16" y="58" type="line"/>
      <point x="-34" y="0" type="line"/>
      <point x="321" y="0" type="line"/>
      <point x="339" y="58" type="line"/>
      <point x="317" y="58" type="line" smooth="yes"/>
      <point x="258" y="58"/>
      <point x="201" y="61"/>
      <point x="203" y="68" type="curve" smooth="yes"/>
      <point x="379" y="642" type="line" smooth="yes"/>
      <point x="381" y="649"/>
      <point x="441" y="652"/>
      <point x="487" y="652" type="curve" smooth="yes"/>
      <point x="499" y="652" type="line"/>
      <point x="517" y="710" type="line"/>
      <point x="185" y="710" type="line"/>
      <point x="167" y="652" type="line"/>
      <point x="180" y="652" type="line" smooth="yes"/>
      <point x="240" y="652"/>
      <point x="282" y="645"/>
      <point x="273" y="616" type="curve" smooth="yes"/>
    </contour>
  </outline>
</glyph>
<glyph name="eth" format="2">
  <advance width="781"/>
  <unicode hex="00F0"/>
  <outline>
    <contour>
      <point x="339" y="-13" type="curve" smooth="yes"/>
      <point x="629" y="-13"/>
      <point x="731" y="265"/>
      <point x="731" y="458" type="curve" smooth="yes"/>
      <point x="731" y="640"/>
      <point x="614" y="734"/>
      <point x="393" y="813" type="curve"/>
      <point x="349" y="765" type="line"/>
      <point x="544" y="692"/>
      <point x="636" y="628"/>
      <point x="636" y="480" type="curve" smooth="yes"/>
      <point x="636" y="430"/>
      <point x="627" y="374"/>
      <point x="606" y="297" type="curve" smooth="yes"/>
      <point x="563" y="133"/>
      <point x="487" y="45"/>
      <point x="346" y="45" type="curve" smooth="yes"/>
      <point x="222" y="45"/>
      <point x="157" y="84"/>
      <point x="157" y="198" type="curve" smooth="yes"/>
      <point x="157" y="229"/>
      <point x="159" y="262"/>
      <point x="173" y="304" type="curve" smooth="yes"/>
      <point x="213" y="433"/>
      <point x="287" y="490"/>
      <point x="413" y="490" type="curve" smooth="yes"/>
      <point x="557" y="490"/>
      <point x="608" y="425"/>
      <point x="645" y="347" type="curve"/>
      <point x="647" y="402" type="line"/>
      <point x="619" y="483"/>
      <point x="557" y="548"/>
      <point x="413" y="548" type="curve" smooth="yes"/>
      <point x="191" y="548"/>
      <point x="56" y="387"/>
      <point x="56" y="206" type="curve" smooth="yes"/>
      <point x="56" y="75"/>
      <point x="144" y="-13"/>
    </contour>
    <contour>
      <point x="253" y="638" type="line"/>
      <point x="261" y="592" type="line"/>
      <point x="801" y="699" type="line"/>
      <point x="792" y="745" type="line"/>
    </contour>
  </outline>
</glyph>
<glyph name="oslash" format="2">
  <advance width="807"/>
  <unicode hex="00F8"/>
  <anchor x="403" y="565" name="top"/>
  <outline>
    <contour>
      <point x="358" y="-13" type="curve" smooth="yes"/>
      <point x="613" y="-13"/>
      <point x="738" y="183"/>
      <point x="738" y="357" type="curve" smooth="yes"/>
      <point x="738" y="476"/>
      <point x="635" y="575"/>
      <point x="456" y="575" type="curve" smooth="yes"/>
      <point x="202" y="575"/>
      <point x="76" y="379"/>
      <point x="76" y="205" type="curve" smooth="yes"/>
      <point x="76" y="86"/>
      <point x="179" y="-13"/>
    </contour>
    <contour>
      <point x="-42" y="-10" type="line"/>
      <point x="48" y="-10" type="line"/>
      <point x="845" y="572" type="line"/>
      <point x="756" y="572" type="line"/>
    </contour>
    <contour>
      <point x="368" y="45" type="curve" smooth="yes"/>
      <point x="219" y="45"/>
      <point x="176" y="91"/>
      <point x="176" y="199" type="curve" smooth="yes"/>
      <point x="176" y="257"/>
      <point x="189" y="322"/>
      <point x="217" y="377" type="curve" smooth="yes"/>
      <point x="258" y="457"/>
      <point x="330" y="517"/>
      <point x="446" y="517" type="curve" smooth="yes"/>
      <point x="595" y="517"/>
      <point x="638" y="471"/>
      <point x="638" y="363" type="curve" smooth="yes"/>
      <point x="638" y="305"/>
      <point x="626" y="240"/>
      <point x="597" y="185" type="curve" smooth="yes"/>
      <point x="557" y="105"/>
      <point x="485" y="45"/>
    </contour>
  </outline>
</glyph>
<glyph name="ibreve" format="2">
  <advance width="422"/>
  <unicode hex="012D"/>
  <outline>
    <contour>
      <point x="274" y="668" type="curve" smooth="yes"/>
      <point x="150" y="668"/>
      <point x="104" y="709"/>
      <point x="104" y="778" type="curve" smooth="yes"/>
      <point x="104" y="797"/>
      <point x="105" y="809"/>
      <point x="111" y="831" type="curve"/>
      <point x="186" y="831" type="line"/>
      <point x="178" y="765"/>
      <point x="183" y="735"/>
      <point x="278" y="735" type="curve" smooth="yes"/>
      <point x="360" y="735"/>
      <point x="384" y="752"/>
      <point x="405" y="831" type="curve"/>
      <point x="478" y="831" type="line"/>
      <point x="457" y="706"/>
      <point x="395" y="668"/>
    </contour>
    <component base="dotlessi"/>
  </outline>
</glyph>
<glyph name="OE" format="2">
  <advance width="1327"/>
  <unicode hex="0152"/>
  <outline>
    <contour>
      <point x="771" y="391" type="curve"/>
      <point x="754" y="339" type="line"/>
      <point x="873" y="335"/>
      <point x="992" y="330"/>
      <point x="1111" y="326" type="curve"/>
      <point x="1134" y="405" type="line"/>
      <point x="1013" y="400"/>
      <point x="892" y="396"/>
    </contour>
    <contour>
      <point x="1227" y="224" type="line"/>
      <point x="1154" y="224" type="line"/>
      <point x="1098" y="101" type="line" smooth="yes"/>
      <point x="1082" y="65"/>
      <point x="1037" y="56"/>
      <point x="932" y="56" type="curve" smooth="yes"/>
      <point x="689" y="56" type="line"/>
      <point x="872" y="654" type="line"/>
      <point x="1075" y="654" type="line" smooth="yes"/>
      <point x="1180" y="654"/>
      <point x="1218" y="645"/>
      <point x="1214" y="609" type="curve" smooth="yes"/>
      <point x="1204" y="511" type="line"/>
      <point x="1274" y="511" type="line"/>
      <point x="1330" y="710" type="line"/>
      <point x="590" y="710" type="line" smooth="yes"/>
      <point x="243" y="710"/>
      <point x="67" y="521"/>
      <point x="67" y="292" type="curve" smooth="yes"/>
      <point x="67" y="108"/>
      <point x="212" y="0"/>
      <point x="477" y="0" type="curve" smooth="yes"/>
      <point x="1159" y="0" type="line"/>
    </contour>
    <contour>
      <point x="480" y="56" type="line" smooth="yes"/>
      <point x="257" y="56"/>
      <point x="172" y="140"/>
      <point x="172" y="291" type="curve" smooth="yes"/>
      <point x="172" y="477"/>
      <point x="278" y="654"/>
      <point x="595" y="654" type="curve" smooth="yes"/>
      <point x="774" y="654" type="line"/>
      <point x="592" y="56" type="line"/>
    </contour>
  </outline>
</glyph>
<glyph name="oe" format="2">
  <advance width="1240"/>
  <unicode hex="0153"/>
  <outline>
    <contour>
      <point x="698" y="207" type="curve" smooth="yes"/>
      <point x="698" y="369"/>
      <point x="794" y="517"/>
      <point x="972" y="517" type="curve" smooth="yes"/>
      <point x="1057" y="517"/>
      <point x="1103" y="489"/>
      <point x="1103" y="432" type="curve" smooth="yes"/>
      <point x="1103" y="335"/>
      <point x="998" y="280"/>
      <point x="689" y="272" type="curve"/>
      <point x="684" y="225" type="line"/>
      <point x="1022" y="230"/>
      <point x="1194" y="303"/>
      <point x="1194" y="435" type="curve" smooth="yes"/>
      <point x="1194" y="515"/>
      <point x="1126" y="575"/>
      <point x="979" y="575" type="curve" smooth="yes"/>
      <point x="758" y="575"/>
      <point x="625" y="403"/>
      <point x="625" y="210" type="curve" smooth="yes"/>
      <point x="625" y="77"/>
      <point x="709" y="-12"/>
      <point x="880" y="-12" type="curve" smooth="yes"/>
      <point x="1000" y="-12"/>
      <point x="1100" y="40"/>
      <point x="1157" y="109" type="curve"/>
      <point x="1109" y="147" type="line"/>
      <point x="1058" y="88"/>
      <point x="994" y="46"/>
      <point x="886" y="46" type="curve" smooth="yes"/>
      <point x="769" y="46"/>
      <point x="698" y="91"/>
    </contour>
    <contour>
      <point x="437" y="575" type="curve" smooth="yes"/>
      <point x="182" y="575"/>
      <point x="56" y="379"/>
      <point x="56" y="205" type="curve" smooth="yes"/>
      <point x="56" y="72"/>
      <point x="159" y="-13"/>
      <point x="338" y="-13" type="curve" smooth="yes"/>
      <point x="593" y="-13"/>
      <point x="698" y="192"/>
      <point x="698" y="360" type="curve" smooth="yes"/>
      <point x="698" y="486"/>
      <point x="615" y="575"/>
    </contour>
    <contour>
      <point x="577" y="185" type="curve" smooth="yes"/>
      <point x="537" y="105"/>
      <point x="465" y="45"/>
      <point x="348" y="45" type="curve" smooth="yes"/>
      <point x="212" y="45"/>
      <point x="157" y="97"/>
      <point x="157" y="199" type="curve" smooth="yes"/>
      <point x="157" y="257"/>
      <point x="169" y="322"/>
      <point x="197" y="377" type="curve" smooth="yes"/>
      <point x="238" y="457"/>
      <point x="310" y="517"/>
      <point x="427" y="517" type="curve" smooth="yes"/>
      <point x="563" y="517"/>
      <point x="618" y="465"/>
      <point x="618" y="363" type="curve" smooth="yes"/>
      <point x="618" y="305"/>
      <point x="606" y="240"/>
    </contour>
  </outline>
</glyph>
<glyph name="icaron" format="2">
  <advance width="429"/>
  <unicode hex="01D0"/>
  <outline>
    <contour>
      <point x="223" y="656" type="line"/>
      <point x="122" y="824" type="line"/>
      <point x="128" y="844" type="line"/>
      <point x="169" y="844" type="line"/>
      <point x="323" y="698" type="line"/>
      <point x="253" y="716" type="line"/>
      <point x="460" y="844" type="line"/>
      <point x="507" y="844" type="line"/>
      <point x="501" y="824" type="line"/>
      <point x="303" y="656" type="line"/>
    </contour>
    <component base="dotlessi"/>
  </outline>
</glyph>
<glyph name="Germandbls" format="2">
  <advance width="1049"/>
  <unicode hex="1E9E"/>
  <outline>
    <contour>
      <point x="487" y="231" type="curve"/>
      <point x="406" y="231" type="line"/>
      <point x="335" y="0" type="line"/>
      <point x="409" y="0" type="line"/>
      <point x="470" y="157" type="line"/>
      <point x="454" y="139" type="line"/>
      <point x="458" y="33"/>
      <point x="527" y="-14"/>
      <point x="666" y="-14" type="curve" smooth="yes"/>
      <point x="858" y="-14"/>
      <point x="947" y="77"/>
      <point x="947" y="201" type="curve" smooth="yes"/>
      <point x="947" y="316"/>
      <point x="831" y="363"/>
      <point x="642" y="418" type="curve"/>
      <point x="671" y="390" type="line"/>
      <point x="953" y="640" type="line"/>
      <point x="975" y="710" type="line"/>
      <point x="583" y="710" type="line" smooth="yes"/>
      <point x="363" y="710"/>
      <point x="270" y="631"/>
      <point x="220" y="468" type="curve" smooth="yes"/>
      <point x="106" y="94" type="line" smooth="yes"/>
      <point x="98" y="65"/>
      <point x="51" y="58"/>
      <point x="-9" y="58" type="curve" smooth="yes"/>
      <point x="-22" y="58" type="line"/>
      <point x="-40" y="0" type="line"/>
      <point x="175" y="0" type="line"/>
      <point x="320" y="475" type="line" smooth="yes"/>
      <point x="355" y="588"/>
      <point x="395" y="654"/>
      <point x="574" y="654" type="curve"/>
      <point x="897" y="654" type="line"/>
      <point x="874" y="670" type="line"/>
      <point x="604" y="428" type="line"/>
      <point x="586" y="373" type="line"/>
      <point x="767" y="319"/>
      <point x="849" y="290"/>
      <point x="849" y="201" type="curve" smooth="yes"/>
      <point x="849" y="103"/>
      <point x="800" y="42"/>
      <point x="671" y="42" type="curve" smooth="yes"/>
      <point x="529" y="42"/>
      <point x="483" y="97"/>
    </contour>
  </outline>
</glyph>
<glyph name="guilsinglleft" format="2">
  <advance width="486"/>
  <unicode hex="2039"/>
  <outline>
    <contour>
      <point x="152" y="247" type="line"/>
      <point x="477" y="505" type="line"/>
      <point x="394" y="505" type="line"/>
      <point x="99" y="315" type="line"/>
      <point x="84" y="264" type="line"/>
      <point x="261" y="65" type="line"/>
      <point x="340" y="65" type="line"/>
      <point x="172" y="314" type="line"/>
    </contour>
  </outline>
</glyph>
<glyph name="uni20B8" format="2">
  <advance width="686"/>
  <unicode hex="20B8"/>
  <outline>
    <contour>
      <point x="218" y="92" type="line" smooth="yes"/>
      <point x="209" y="63"/>
      <point x="157" y="56"/>
      <point x="97" y="56" type="curve" smooth="yes"/>
      <point x="73" y="56" type="line"/>
      <point x="56" y="0" type="line"/>
      <point x="422" y="0" type="line"/>
      <point x="439" y="56" type="line"/>
      <point x="415" y="56" type="line" smooth="yes"/>
      <point x="355" y="56"/>
      <point x="306" y="63"/>
      <point x="315" y="92" type="curve" smooth="yes"/>
      <point x="435" y="482" type="line"/>
      <point x="456" y="482" type="line" smooth="yes"/>
      <point x="556" y="482"/>
      <point x="595" y="465"/>
      <point x="587" y="429" type="curve" smooth="yes"/>
      <point x="564" y="304" type="line"/>
      <point x="632" y="304" type="line"/>
      <point x="703" y="538" type="line"/>
      <point x="102" y="538" type="line"/>
      <point x="30" y="304" type="line"/>
      <point x="98" y="304" type="line"/>
      <point x="153" y="429" type="line" smooth="yes"/>
      <point x="169" y="465"/>
      <point x="216" y="482"/>
      <point x="316" y="482" type="curve" smooth="yes"/>
      <point x="338" y="482" type="line"/>
    </contour>
    <contour>
      <point x="159" y="735" type="line"/>
      <point x="139" y="666" type="line"/>
      <point x="745" y="666" type="line"/>
      <point x="766" y="735" type="line"/>
    </contour>
  </outline>
</glyph>
<glyph name="servicemark" format="2">
  <advance width="1271"/>
  <unicode hex="2120"/>
  <outline>
    <contour>
      <point x="550" y="314" type="line"/>
      <point x="716" y="314" type="line"/>
      <point x="728" y="353" type="line"/>
      <point x="726" y="353" type="line" smooth="yes"/>
      <point x="711" y="353"/>
      <point x="684" y="355"/>
      <point x="685" y="358" type="curve" smooth="yes"/>
      <point x="791" y="705" type="line"/>
      <point x="785" y="706" type="line"/>
      <point x="822" y="313" type="line"/>
      <point x="874" y="313" type="line"/>
      <point x="1154" y="706" type="line"/>
      <point x="1144" y="701" type="line"/>
      <point x="1038" y="358" type="line" smooth="yes"/>
      <point x="1037" y="355"/>
      <point x="1012" y="353"/>
      <point x="994" y="353" type="curve" smooth="yes"/>
      <point x="989" y="353" type="line"/>
      <point x="977" y="314" type="line"/>
      <point x="1159" y="314" type="line"/>
      <point x="1171" y="353" type="line"/>
      <point x="1159" y="353" type="line" smooth="yes"/>
      <point x="1129" y="353"/>
      <point x="1108" y="357"/>
      <point x="1112" y="372" type="curve" smooth="yes"/>
      <point x="1198" y="653" type="line" smooth="yes"/>
      <point x="1202" y="667"/>
      <point x="1226" y="671"/>
      <point x="1255" y="671" type="curve" smooth="yes"/>
      <point x="1268" y="671" type="line"/>
      <point x="1280" y="710" type="line"/>
      <point x="1095" y="710" type="line"/>
      <point x="854" y="359" type="line"/>
      <point x="882" y="364" type="line"/>
      <point x="853" y="710" type="line"/>
      <point x="672" y="710" type="line"/>
      <point x="659" y="671" type="line"/>
      <point x="670" y="671" type="line" smooth="yes"/>
      <point x="700" y="671"/>
      <point x="722" y="667"/>
      <point x="718" y="653" type="curve" smooth="yes"/>
      <point x="632" y="372" type="line" smooth="yes"/>
      <point x="628" y="357"/>
      <point x="604" y="353"/>
      <point x="574" y="353" type="curve" smooth="yes"/>
      <point x="563" y="353" type="line"/>
    </contour>
    <contour>
      <point x="191" y="607" type="curve" smooth="yes"/>
      <point x="191" y="550"/>
      <point x="238" y="528"/>
      <point x="307" y="503" type="curve" smooth="yes"/>
      <point x="365" y="483"/>
      <point x="428" y="466"/>
      <point x="428" y="417" type="curve" smooth="yes"/>
      <point x="428" y="372"/>
      <point x="398" y="349"/>
      <point x="331" y="349" type="curve" smooth="yes"/>
      <point x="242" y="349"/>
      <point x="197" y="381"/>
      <point x="192" y="452" type="curve"/>
      <point x="134" y="452" type="line"/>
      <point x="94" y="317" type="line"/>
      <point x="148" y="317" type="line"/>
      <point x="179" y="403" type="line"/>
      <point x="165" y="411" type="line"/>
      <point x="177" y="348"/>
      <point x="231" y="310"/>
      <point x="328" y="310" type="curve" smooth="yes"/>
      <point x="444" y="310"/>
      <point x="500" y="356"/>
      <point x="500" y="428" type="curve" smooth="yes"/>
      <point x="500" y="495"/>
      <point x="430" y="519"/>
      <point x="367" y="541" type="curve" smooth="yes"/>
      <point x="303" y="564"/>
      <point x="259" y="577"/>
      <point x="259" y="619" type="curve" smooth="yes"/>
      <point x="259" y="655"/>
      <point x="286" y="675"/>
      <point x="350" y="675" type="curve" smooth="yes"/>
      <point x="413" y="675"/>
      <point x="458" y="650"/>
      <point x="463" y="586" type="curve"/>
      <point x="519" y="586" type="line"/>
      <point x="555" y="707" type="line"/>
      <point x="503" y="707" type="line"/>
      <point x="474" y="634" type="line"/>
      <point x="485" y="625" type="line"/>
      <point x="470" y="690"/>
      <point x="427" y="715"/>
      <point x="348" y="715" type="curve" smooth="yes"/>
      <point x="249" y="715"/>
      <point x="191" y="672"/>
    </contour>
  </outline>
</glyph>
<glyph name="product" format="2">
  <advance width="876"/>
  <unicode hex="220F"/>
  <outline>
    <contour>
      <point x="473" y="655" type="line" smooth="yes"/>
      <point x="426" y="655"/>
      <point x="365" y="652"/>
      <point x="363" y="645" type="curve" smooth="yes"/>
      <point x="119" y="-158" type="line" smooth="yes"/>
      <point x="116" y="-165"/>
      <point x="170" y="-168"/>
      <point x="214" y="-168" type="curve" smooth="yes"/>
      <point x="225" y="-168" type="line"/>
      <point x="208" y="-223" type="line"/>
      <point x="-111" y="-223" type="line"/>
      <point x="-95" y="-168" type="line"/>
      <point x="-81" y="-168" type="line" smooth="yes"/>
      <point x="-21" y="-168"/>
      <point x="26" y="-161"/>
      <point x="34" y="-132" type="curve" smooth="yes"/>
      <point x="263" y="619" type="line" smooth="yes"/>
      <point x="272" y="648"/>
      <point x="230" y="655"/>
      <point x="170" y="655" type="curve" smooth="yes"/>
      <point x="157" y="655" type="line"/>
      <point x="173" y="710" type="line"/>
      <point x="944" y="710" type="line"/>
      <point x="927" y="655" type="line"/>
      <point x="914" y="655" type="line" smooth="yes"/>
      <point x="853" y="655"/>
      <point x="807" y="648"/>
      <point x="799" y="619" type="curve" smooth="yes"/>
      <point x="569" y="-132" type="line"/>
      <point x="560" y="-161"/>
      <point x="602" y="-168"/>
      <point x="662" y="-168" type="curve" smooth="yes"/>
      <point x="676" y="-168" type="line"/>
      <point x="659" y="-223" type="line"/>
      <point x="340" y="-223" type="line"/>
      <point x="357" y="-168" type="line"/>
      <point x="367" y="-168" type="line" smooth="yes"/>
      <point x="413" y="-168"/>
      <point x="467" y="-165"/>
      <point x="469" y="-158" type="curve" smooth="yes"/>
      <point x="714" y="645" type="line" smooth="yes"/>
      <point x="716" y="652"/>
      <point x="657" y="655"/>
      <point x="610" y="655" type="curve" smooth="yes"/>
    </contour>
  </outline>
</glyph>
<glyph name="infinity" format="2">
  <advance width="982"/>
  <unicode hex="221E"/>
  <outline>
    <contour>
      <point x="457" y="333" type="curve" smooth="yes"/>
      <point x="413" y="432"/>
      <point x="388" y="496"/>
      <point x="292" y="496" type="curve" smooth="yes"/>
      <point x="183" y="496"/>
      <point x="131" y="418"/>
      <point x="131" y="327" type="curve" smooth="yes"/>
      <point x="131" y="252"/>
      <point x="180" y="213"/>
      <point x="260" y="213" type="curve" smooth="yes"/>
      <point x="363" y="213"/>
      <point x="397" y="277"/>
      <point x="459" y="346" type="curve"/>
      <point x="503" y="343" type="line"/>
      <point x="433" y="242"/>
      <point x="364" y="148"/>
      <point x="239" y="148" type="curve" smooth="yes"/>
      <point x="128" y="148"/>
      <point x="62" y="211"/>
      <point x="62" y="318" type="curve" smooth="yes"/>
      <point x="62" y="443"/>
      <point x="159" y="561"/>
      <point x="312" y="561" type="curve" smooth="yes"/>
      <point x="455" y="561"/>
      <point x="495" y="471"/>
      <point x="537" y="376" type="curve" smooth="yes"/>
      <point x="580" y="277"/>
      <point x="606" y="213"/>
      <point x="702" y="213" type="curve" smooth="yes"/>
      <point x="811" y="213"/>
      <point x="862" y="290"/>
      <point x="862" y="381" type="curve" smooth="yes"/>
      <point x="862" y="457"/>
      <point x="814" y="496"/>
      <point x="734" y="496" type="curve" smooth="yes"/>
      <point x="630" y="496"/>
      <point x="596" y="431"/>
      <point x="535" y="363" type="curve"/>
      <point x="491" y="365" type="line"/>
      <point x="560" y="466"/>
      <point x="629" y="561"/>
      <point x="755" y="561" type="curve" smooth="yes"/>
      <point x="866" y="561"/>
      <point x="932" y="498"/>
      <point x="932" y="391" type="curve" smooth="yes"/>
      <point x="932" y="265"/>
      <point x="834" y="148"/>
      <point x="682" y="148" type="curve" smooth="yes"/>
      <point x="540" y="148"/>
      <point x="499" y="238"/>
    </contour>
  </outline>
</glyph>
<glyph name="five.den" format="2">
  <advance width="594"/>
  <unicode hex="E407"/>
  <outline>
    <contour>
      <point x="254" y="-6" type="curve" smooth="yes"/>
      <point x="127" y="-6"/>
      <point x="69" y="36"/>
      <point x="43" y="94" type="curve"/>
      <point x="103" y="112" type="line"/>
      <point x="119" y="81"/>
      <point x="148" y="36"/>
      <point x="252" y="36" type="curve" smooth="yes"/>
      <point x="341" y="36"/>
      <point x="377" y="86"/>
      <point x="377" y="157" type="curve" smooth="yes"/>
      <point x="377" y="208"/>
      <point x="346" y="231"/>
      <point x="285" y="231" type="curve" smooth="yes"/>
      <point x="221" y="231"/>
      <point x="189" y="212"/>
      <point x="164" y="185" type="curve"/>
      <point x="114" y="185" type="line"/>
      <point x="184" y="415" type="line"/>
      <point x="503" y="415" type="line"/>
      <point x="474" y="355" type="line"/>
      <point x="201" y="355" type="line"/>
      <point x="235" y="401" type="line"/>
      <point x="177" y="213" type="line"/>
      <point x="169" y="204"/>
      <point x="163" y="206"/>
      <point x="157" y="208" type="curve"/>
      <point x="193" y="248"/>
      <point x="232" y="273"/>
      <point x="308" y="273" type="curve" smooth="yes"/>
      <point x="418" y="273"/>
      <point x="472" y="225"/>
      <point x="472" y="155" type="curve" smooth="yes"/>
      <point x="472" y="53"/>
      <point x="385" y="-6"/>
    </contour>
  </outline>
</glyph>
<glyph name="six.den" format="2">
  <advance width="593"/>
  <unicode hex="E408"/>
  <outline>
    <contour>
      <point x="262" y="-6" type="curve" smooth="yes"/>
      <point x="143" y="-6"/>
      <point x="70" y="39"/>
      <point x="70" y="142" type="curve" smooth="yes"/>
      <point x="70" y="300"/>
      <point x="206" y="429"/>
      <point x="495" y="436" type="curve"/>
      <point x="498" y="391" type="line"/>
      <point x="259" y="382"/>
      <point x="161" y="274"/>
      <point x="161" y="139" type="curve" smooth="yes"/>
      <point x="161" y="67"/>
      <point x="196" y="36"/>
      <point x="265" y="36" type="curve" smooth="yes"/>
      <point x="353" y="36"/>
      <point x="389" y="103"/>
      <point x="389" y="162" type="curve" smooth="yes"/>
      <point x="389" y="213"/>
      <point x="365" y="237"/>
      <point x="312" y="237" type="curve" smooth="yes"/>
      <point x="248" y="237"/>
      <point x="195" y="195"/>
      <point x="150" y="146" type="curve"/>
      <point x="152" y="181" type="line"/>
      <point x="190" y="225"/>
      <point x="251" y="279"/>
      <point x="340" y="279" type="curve" smooth="yes"/>
      <point x="424" y="279"/>
      <point x="486" y="241"/>
      <point x="486" y="162" type="curve" smooth="yes"/>
      <point x="486" y="60"/>
      <point x="394" y="-6"/>
    </contour>
  </outline>
</glyph>
<glyph name="nine.den" format="2">
  <advance width="593"/>
  <unicode hex="E40B"/>
  <outline>
    <contour>
      <point x="301" y="420" type="curve" smooth="yes"/>
      <point x="421" y="420"/>
      <point x="497" y="374"/>
      <point x="497" y="264" type="curve" smooth="yes"/>
      <point x="497" y="110"/>
      <point x="361" y="-15"/>
      <point x="72" y="-23" type="curve"/>
      <point x="69" y="22" type="line"/>
      <point x="309" y="32"/>
      <point x="406" y="124"/>
      <point x="406" y="267" type="curve" smooth="yes"/>
      <point x="406" y="347"/>
      <point x="373" y="378"/>
      <point x="299" y="378" type="curve" smooth="yes"/>
      <point x="210" y="378"/>
      <point x="181" y="313"/>
      <point x="181" y="259" type="curve" smooth="yes"/>
      <point x="181" y="211"/>
      <point x="207" y="187"/>
      <point x="260" y="187" type="curve" smooth="yes"/>
      <point x="330" y="187"/>
      <point x="376" y="230"/>
      <point x="416" y="281" type="curve"/>
      <point x="415" y="246" type="line"/>
      <point x="381" y="200"/>
      <point x="326" y="146"/>
      <point x="233" y="146" type="curve" smooth="yes"/>
      <point x="150" y="146"/>
      <point x="84" y="184"/>
      <point x="84" y="258" type="curve" smooth="yes"/>
      <point x="84" y="351"/>
      <point x="167" y="420"/>
    </contour>
  </outline>
</glyph>
<glyph name="f_f_i" format="2">
  <advance width="1303"/>
  <unicode hex="FB03"/>
  <outline>
    <contour>
      <point x="93" y="565" type="line"/>
      <point x="77" y="509" type="line"/>
      <point x="580" y="509" type="line"/>
      <point x="596" y="565" type="line"/>
    </contour>
    <contour>
      <point x="447" y="714" type="curve" smooth="yes"/>
      <point x="490" y="714"/>
      <point x="522" y="707"/>
      <point x="544" y="703" type="curve"/>
      <point x="560" y="765" type="line"/>
      <point x="541" y="769"/>
      <point x="499" y="775"/>
      <point x="453" y="775" type="curve" smooth="yes"/>
      <point x="325" y="775"/>
      <point x="266" y="731"/>
      <point x="244" y="630" type="curve" smooth="yes"/>
      <point x="54" y="-223" type="line"/>
      <point x="132" y="-223" type="line"/>
      <point x="338" y="620" type="line" smooth="yes"/>
      <point x="356" y="693"/>
      <point x="377" y="714"/>
    </contour>
    <contour>
      <point x="1176" y="680" type="curve" smooth="yes"/>
      <point x="1221" y="680"/>
      <point x="1255" y="698"/>
      <point x="1255" y="744" type="curve" smooth="yes"/>
      <point x="1255" y="787"/>
      <point x="1221" y="806"/>
      <point x="1176" y="806" type="curve" smooth="yes"/>
      <point x="1129" y="806"/>
      <point x="1096" y="787"/>
      <point x="1096" y="744" type="curve" smooth="yes"/>
      <point x="1096" y="698"/>
      <point x="1129" y="680"/>
    </contour>
    <contour>
      <point x="521" y="565" type="line"/>
      <point x="505" y="509" type="line"/>
      <point x="946" y="509" type="line" smooth="yes"/>
      <point x="1022" y="509"/>
      <point x="1091" y="489"/>
      <point x="1085" y="466" type="curve" smooth="yes"/>
      <point x="1012" y="223" type="line" smooth="yes"/>
      <point x="979" y="117"/>
      <point x="969" y="86"/>
      <point x="969" y="58" type="curve" smooth="yes"/>
      <point x="969" y="20"/>
      <point x="1006" y="0"/>
      <point x="1066" y="0" type="curve" smooth="yes"/>
      <point x="1110" y="0"/>
      <point x="1154" y="0"/>
      <point x="1197" y="0" type="curve"/>
      <point x="1209" y="57" type="line"/>
      <point x="1169" y="57"/>
      <point x="1130" y="57"/>
      <point x="1089" y="57" type="curve" smooth="yes"/>
      <point x="1072" y="57"/>
      <point x="1063" y="62"/>
      <point x="1063" y="74" type="curve" smooth="yes"/>
      <point x="1063" y="86"/>
      <point x="1072" y="121"/>
      <point x="1102" y="218" type="curve" smooth="yes"/>
      <point x="1206" y="565" type="line"/>
    </contour>
    <contour>
      <point x="876" y="729" type="curve" smooth="yes"/>
      <point x="919" y="729"/>
      <point x="946" y="723"/>
      <point x="969" y="719" type="curve"/>
      <point x="985" y="780" type="line"/>
      <point x="965" y="785"/>
      <point x="927" y="790"/>
      <point x="882" y="790" type="curve" smooth="yes"/>
      <point x="756" y="790"/>
      <point x="699" y="747"/>
      <point x="676" y="645" type="curve" smooth="yes"/>
      <point x="483" y="-223" type="line"/>
      <point x="561" y="-223" type="line"/>
      <point x="770" y="635" type="line" smooth="yes"/>
      <point x="788" y="707"/>
      <point x="809" y="729"/>
    </contour>
  </outline>
</glyph>
<glyph name="F.alt" format="2">
  <advance width="802"/>
  <outline>
    <contour>
      <point x="383" y="654" type="line"/>
      <point x="597" y="654" type="line" smooth="yes"/>
      <point x="701" y="654"/>
      <point x="739" y="645"/>
      <point x="736" y="609" type="curve" smooth="yes"/>
      <point x="726" y="515" type="line"/>
      <point x="797" y="515" type="line"/>
      <point x="853" y="710" type="line"/>
      <point x="185" y="710" type="line"/>
      <point x="168" y="652" type="line"/>
      <point x="182" y="652" type="line" smooth="yes"/>
      <point x="241" y="652"/>
      <point x="283" y="645"/>
      <point x="275" y="616" type="curve" smooth="yes"/>
      <point x="114" y="94" type="line" smooth="yes"/>
      <point x="106" y="65"/>
      <point x="59" y="58"/>
      <point x="-1" y="58" type="curve" smooth="yes"/>
      <point x="-15" y="58" type="line"/>
      <point x="-32" y="0" type="line"/>
      <point x="324" y="0" type="line"/>
      <point x="342" y="58" type="line"/>
      <point x="317" y="58" type="line" smooth="yes"/>
      <point x="258" y="58"/>
      <point x="201" y="61"/>
      <point x="204" y="68" type="curve" smooth="yes"/>
    </contour>
    <contour>
      <point x="275" y="373" type="line"/>
      <point x="259" y="319" type="line"/>
      <point x="478" y="319" type="line" smooth="yes"/>
      <point x="513" y="319"/>
      <point x="518" y="294"/>
      <point x="508" y="260" type="curve" smooth="yes"/>
      <point x="502" y="240" type="line"/>
      <point x="575" y="240" type="line"/>
      <point x="639" y="453" type="line"/>
      <point x="566" y="453" type="line"/>
      <point x="560" y="433" type="line" smooth="yes"/>
      <point x="549" y="398"/>
      <point x="529" y="373"/>
      <point x="494" y="373" type="curve" smooth="yes"/>
    </contour>
  </outline>
</glyph>
<glyph name="OE.alt" format="2">
  <advance width="1327"/>
  <outline>
    <contour>
      <point x="772" y="389" type="line"/>
      <point x="756" y="336" type="line"/>
      <point x="961" y="336" type="line" smooth="yes"/>
      <point x="996" y="336"/>
      <point x="1001" y="311"/>
      <point x="991" y="277" type="curve" smooth="yes"/>
      <point x="985" y="257" type="line"/>
      <point x="1058" y="257" type="line"/>
      <point x="1123" y="469" type="line"/>
      <point x="1050" y="469" type="line"/>
      <point x="1044" y="450" type="line" smooth="yes"/>
      <point x="1033" y="415"/>
      <point x="1014" y="389"/>
      <point x="979" y="389" type="curve" smooth="yes"/>
    </contour>
    <contour>
      <point x="1223" y="211" type="line"/>
      <point x="1149" y="211" type="line"/>
      <point x="1099" y="101" type="line" smooth="yes"/>
      <point x="1082" y="65"/>
      <point x="1037" y="56"/>
      <point x="932" y="56" type="curve" smooth="yes"/>
      <point x="689" y="56" type="line"/>
      <point x="872" y="654" type="line"/>
      <point x="1075" y="654" type="line" smooth="yes"/>
      <point x="1180" y="654"/>
      <point x="1219" y="645"/>
      <point x="1216" y="609" type="curve" smooth="yes"/>
      <point x="1208" y="524" type="line"/>
      <point x="1279" y="524" type="line"/>
      <point x="1330" y="710" type="line"/>
      <point x="590" y="710" type="line" smooth="yes"/>
      <point x="243" y="710"/>
      <point x="67" y="521"/>
      <point x="67" y="292" type="curve" smooth="yes"/>
      <point x="67" y="108"/>
      <point x="212" y="0"/>
      <point x="477" y="0" type="curve" smooth="yes"/>
      <point x="1159" y="0" type="line"/>
    </contour>
    <contour>
      <point x="480" y="56" type="line" smooth="yes"/>
      <point x="257" y="56"/>
      <point x="172" y="140"/>
      <point x="172" y="291" type="curve" smooth="yes"/>
      <point x="172" y="477"/>
      <point x="278" y="654"/>
      <point x="595" y="654" type="curve" smooth="yes"/>
      <point x="774" y="654" type="line"/>
      <point x="592" y="56" type="line"/>
    </contour>
  </outline>
</glyph>
<glyph name="acute.pl" format="2">
  <advance width="613"/>
  <anchor x="278" y="489" name="_top"/>
  <outline>
    <contour>
      <point x="298" y="812" type="curve" smooth="yes"/>
      <point x="234" y="685" type="line"/>
      <point x="229" y="661" type="line"/>
      <point x="263" y="661" type="line"/>
      <point x="381" y="754" type="line" smooth="yes"/>
      <point x="417" y="781"/>
      <point x="436" y="797"/>
      <point x="436" y="824" type="curve" smooth="yes"/>
      <point x="436" y="850"/>
      <point x="411" y="869"/>
      <point x="375" y="869" type="curve" smooth="yes"/>
      <point x="333" y="869"/>
      <point x="314" y="846"/>
    </contour>
  </outline>
</glyph>
<glyph name="acute.uc" format="2">
  <advance width="613"/>
  <anchor x="266" y="727" name="_top"/>
  <outline>
    <contour>
      <point x="320" y="926" type="curve" smooth="yes"/>
      <point x="193" y="818" type="line"/>
      <point x="186" y="793" type="line"/>
      <point x="227" y="793" type="line"/>
      <point x="380" y="857" type="line" smooth="yes"/>
      <point x="430" y="878"/>
      <point x="463" y="893"/>
      <point x="463" y="924" type="curve" smooth="yes"/>
      <point x="463" y="947"/>
      <point x="442" y="967"/>
      <point x="407" y="967" type="curve" smooth="yes"/>
      <point x="373" y="967"/>
      <point x="350" y="951"/>
    </contour>
  </outline>
</glyph>
<glyph name="acute.ucpl" format="2">
  <advance width="613"/>
  <anchor x="251" y="694" name="_top"/>
  <outline>
    <contour>
      <point x="294" y="913" type="curve" smooth="yes"/>
      <point x="241" y="816" type="line"/>
      <point x="236" y="793" type="line"/>
      <point x="274" y="793" type="line"/>
      <point x="374" y="859" type="line" smooth="yes"/>
      <point x="411" y="882"/>
      <point x="436" y="903"/>
      <point x="436" y="931" type="curve" smooth="yes"/>
      <point x="436" y="957"/>
      <point x="412" y="974"/>
      <point x="377" y="974" type="curve" smooth="yes"/>
      <point x="334" y="974"/>
      <point x="311" y="945"/>
    </contour>
  </outline>
</glyph>
<glyph name="backslash.uc" format="2">
  <advance width="637"/>
  <outline>
    <contour>
      <point x="196" y="760" type="line"/>
      <point x="534" y="-60" type="line"/>
      <point x="453" y="-60" type="line"/>
      <point x="114" y="760" type="line"/>
    </contour>
  </outline>
</glyph>
<glyph name="cent.altprop" format="2">
  <advance width="743"/>
  <outline>
    <contour>
      <point x="212" y="-166" type="line"/>
      <point x="295" y="-166" type="line"/>
      <point x="349" y="15" type="line"/>
      <point x="264" y="8" type="line"/>
    </contour>
    <contour>
      <point x="428" y="550" type="line"/>
      <point x="514" y="557" type="line"/>
      <point x="557" y="703" type="line"/>
      <point x="472" y="703" type="line"/>
    </contour>
    <contour>
      <point x="448" y="518" type="curve" smooth="yes"/>
      <point x="568" y="518"/>
      <point x="620" y="497"/>
      <point x="660" y="484" type="curve"/>
      <point x="661" y="491"/>
      <point x="640" y="509"/>
      <point x="607" y="522" type="curve"/>
      <point x="562" y="373" type="line"/>
      <point x="660" y="373" type="line"/>
      <point x="709" y="530" type="line"/>
      <point x="679" y="545"/>
      <point x="590" y="575"/>
      <point x="450" y="575" type="curve" smooth="yes"/>
      <point x="194" y="575"/>
      <point x="58" y="401"/>
      <point x="58" y="217" type="curve" smooth="yes"/>
      <point x="58" y="83"/>
      <point x="166" y="-13"/>
      <point x="354" y="-13" type="curve" smooth="yes"/>
      <point x="475" y="-13"/>
      <point x="573" y="43"/>
      <point x="630" y="115" type="curve"/>
      <point x="575" y="148" type="line"/>
      <point x="524" y="93"/>
      <point x="467" y="45"/>
      <point x="360" y="45" type="curve" smooth="yes"/>
      <point x="234" y="45"/>
      <point x="157" y="91"/>
      <point x="157" y="210" type="curve" smooth="yes"/>
      <point x="157" y="367"/>
      <point x="232" y="518"/>
    </contour>
  </outline>
</glyph>
<glyph name="circumflex.uc" format="2">
  <advance width="613"/>
  <anchor x="298" y="694" name="_top"/>
  <outline>
    <contour>
      <point x="379" y="957" type="line"/>
      <point x="497" y="802" type="line"/>
      <point x="490" y="782" type="line"/>
      <point x="445" y="782" type="line"/>
      <point x="274" y="916" type="line"/>
      <point x="382" y="912" type="line"/>
      <point x="127" y="782" type="line"/>
      <point x="78" y="782" type="line"/>
      <point x="84" y="802" type="line"/>
      <point x="292" y="957" type="line"/>
    </contour>
  </outline>
</glyph>
<glyph name="circumflex_acute" format="2">
  <advance width="645"/>
  <anchor x="315" y="558" name="_top"/>
  <outline>
    <contour>
      <point x="586" y="944" type="curve" smooth="yes"/>
      <point x="500" y="825" type="line"/>
      <point x="498" y="801" type="line"/>
      <point x="531" y="801" type="line"/>
      <point x="673" y="892" type="line" smooth="yes"/>
      <point x="707" y="913"/>
      <point x="728" y="933"/>
      <point x="728" y="958" type="curve" smooth="yes"/>
      <point x="728" y="980"/>
      <point x="706" y="1002"/>
      <point x="669" y="1002" type="curve" smooth="yes"/>
      <point x="631" y="1002"/>
      <point x="608" y="976"/>
    </contour>
    <component base="circumflex"/>
  </outline>
</glyph>
<glyph name="circumflex_grave.uc" format="2">
  <advance width="660"/>
  <anchor x="325" y="696" name="_top"/>
  <outline>
    <contour>
      <point x="581" y="1042" type="line" smooth="yes"/>
      <point x="549" y="1076"/>
      <point x="532" y="1097"/>
      <point x="493" y="1097" type="curve" smooth="yes"/>
      <point x="456" y="1097"/>
      <point x="435" y="1075"/>
      <point x="435" y="1052" type="curve" smooth="yes"/>
      <point x="435" y="1024"/>
      <point x="465" y="1006"/>
      <point x="494" y="991" type="curve" smooth="yes"/>
      <point x="622" y="923" type="line"/>
      <point x="659" y="923" type="line"/>
      <point x="668" y="946" type="line"/>
    </contour>
    <component base="circumflex.uc"/>
  </outline>
</glyph>
<glyph name="circumflex_hook.uc" format="2">
  <advance width="647"/>
  <anchor x="332" y="694" name="_top"/>
  <outline>
    <contour>
      <point x="442" y="1041" type="line"/>
      <point x="466" y="1112"/>
      <point x="535" y="1143"/>
      <point x="631" y="1143" type="curve" smooth="yes"/>
      <point x="736" y="1143"/>
      <point x="791" y="1114"/>
      <point x="791" y="1051" type="curve" smooth="yes"/>
      <point x="791" y="978"/>
      <point x="705" y="944"/>
      <point x="580" y="942" type="curve"/>
      <point x="641" y="979" type="line"/>
      <point x="614" y="896" type="line"/>
      <point x="537" y="896" type="line"/>
      <point x="562" y="980" type="line"/>
      <point x="657" y="981"/>
      <point x="701" y="996"/>
      <point x="701" y="1049" type="curve" smooth="yes"/>
      <point x="701" y="1083"/>
      <point x="681" y="1097"/>
      <point x="628" y="1097" type="curve" smooth="yes"/>
      <point x="573" y="1097"/>
      <point x="546" y="1083"/>
      <point x="532" y="1041" type="curve"/>
    </contour>
    <component base="circumflex.uc"/>
  </outline>
</glyph>
<glyph name="dblgrave" format="2">
  <advance width="613"/>
  <anchor x="299" y="539" name="_top"/>
  <outline>
    <contour>
      <point x="503" y="813" type="line" smooth="yes"/>
      <point x="491" y="848"/>
      <point x="474" y="869"/>
      <point x="434" y="869" type="curve" smooth="yes"/>
      <point x="397" y="869"/>
      <point x="374" y="849"/>
      <point x="374" y="825" type="curve" smooth="yes"/>
      <point x="374" y="799"/>
      <point x="390" y="784"/>
      <point x="425" y="751" type="curve" smooth="yes"/>
      <point x="522" y="661" type="line"/>
      <point x="556" y="661" type="line"/>
      <point x="549" y="685" type="line"/>
    </contour>
    <contour>
      <point x="263" y="813" type="line" smooth="yes"/>
      <point x="250" y="848"/>
      <point x="234" y="869"/>
      <point x="194" y="869" type="curve" smooth="yes"/>
      <point x="156" y="869"/>
      <point x="134" y="849"/>
      <point x="134" y="825" type="curve" smooth="yes"/>
      <point x="134" y="799"/>
      <point x="150" y="784"/>
      <point x="184" y="751" type="curve" smooth="yes"/>
      <point x="282" y="661" type="line"/>
      <point x="316" y="661" type="line"/>
      <point x="308" y="685" type="line"/>
    </contour>
  </outline>
</glyph>
<glyph name="dblgrave.uc" format="2">
  <advance width="613"/>
  <anchor x="350" y="734" name="_top"/>
  <outline>
    <contour>
      <point x="465" y="926" type="line" smooth="yes"/>
      <point x="448" y="955"/>
      <point x="430" y="974"/>
      <point x="394" y="974" type="curve" smooth="yes"/>
      <point x="359" y="974"/>
      <point x="336" y="955"/>
      <point x="336" y="932" type="curve" smooth="yes"/>
      <point x="336" y="908"/>
      <point x="355" y="890"/>
      <point x="396" y="861" type="curve" smooth="yes"/>
      <point x="495" y="793" type="line"/>
      <point x="535" y="793" type="line"/>
      <point x="531" y="817" type="line"/>
    </contour>
    <contour>
      <point x="230" y="926" type="line" smooth="yes"/>
      <point x="213" y="955"/>
      <point x="195" y="974"/>
      <point x="158" y="974" type="curve" smooth="yes"/>
      <point x="124" y="974"/>
      <point x="101" y="955"/>
      <point x="101" y="932" type="curve" smooth="yes"/>
      <point x="101" y="908"/>
      <point x="120" y="890"/>
      <point x="162" y="861" type="curve" smooth="yes"/>
      <point x="260" y="793" type="line"/>
      <point x="300" y="793" type="line"/>
      <point x="296" y="817" type="line"/>
    </contour>
  </outline>
</glyph>
<glyph name="dollar.proportional" format="2">
  <advance width="743"/>
  <outline>
    <contour>
      <point x="320" y="1" type="curve" smooth="yes"/>
      <point x="521" y="1"/>
      <point x="652" y="72"/>
      <point x="652" y="204" type="curve" smooth="yes"/>
      <point x="652" y="317"/>
      <point x="539" y="344"/>
      <point x="427" y="383" type="curve" smooth="yes"/>
      <point x="300" y="426"/>
      <point x="222" y="441"/>
      <point x="222" y="526" type="curve" smooth="yes"/>
      <point x="222" y="612"/>
      <point x="301" y="654"/>
      <point x="446" y="654" type="curve" smooth="yes"/>
      <point x="566" y="654"/>
      <point x="655" y="628"/>
      <point x="700" y="604" type="curve"/>
      <point x="699" y="619"/>
      <point x="681" y="640"/>
      <point x="653" y="651" type="curve"/>
      <point x="605" y="494" type="line"/>
      <point x="695" y="494" type="line"/>
      <point x="743" y="652" type="line"/>
      <point x="713" y="668"/>
      <point x="608" y="703"/>
      <point x="448" y="703" type="curve" smooth="yes"/>
      <point x="242" y="703"/>
      <point x="142" y="628"/>
      <point x="142" y="518" type="curve" smooth="yes"/>
      <point x="142" y="411"/>
      <point x="231" y="384"/>
      <point x="350" y="344" type="curve" smooth="yes"/>
      <point x="470" y="304"/>
      <point x="568" y="285"/>
      <point x="568" y="199" type="curve" smooth="yes"/>
      <point x="568" y="95"/>
      <point x="472" y="50"/>
      <point x="321" y="50" type="curve" smooth="yes"/>
      <point x="191" y="50"/>
      <point x="83" y="82"/>
      <point x="40" y="109" type="curve"/>
      <point x="38" y="107"/>
      <point x="50" y="69"/>
      <point x="81" y="65" type="curve"/>
      <point x="130" y="223" type="line"/>
      <point x="39" y="223" type="line"/>
      <point x="-8" y="65" type="line"/>
      <point x="31" y="44"/>
      <point x="152" y="1"/>
    </contour>
    <contour>
      <point x="479" y="819" type="line"/>
      <point x="438" y="684" type="line"/>
      <point x="446" y="674" type="line"/>
      <point x="251" y="35" type="line"/>
      <point x="236" y="23" type="line"/>
      <point x="183" y="-150" type="line"/>
      <point x="269" y="-150" type="line"/>
      <point x="322" y="22" type="line"/>
      <point x="315" y="36" type="line"/>
      <point x="510" y="675" type="line"/>
      <point x="524" y="686" type="line"/>
      <point x="566" y="819" type="line"/>
    </contour>
  </outline>
</glyph>
<glyph name="f.alt" format="2">
  <advance width="526"/>
  <outline>
    <contour>
      <point x="93" y="565" type="line"/>
      <point x="77" y="509" type="line"/>
      <point x="527" y="509" type="line"/>
      <point x="542" y="565" type="line"/>
    </contour>
    <contour>
      <point x="484" y="790" type="curve" smooth="yes"/>
      <point x="335" y="790"/>
      <point x="269" y="742"/>
      <point x="247" y="645" type="curve" smooth="yes"/>
      <point x="54" y="-223" type="line"/>
      <point x="132" y="-223" type="line"/>
      <point x="341" y="635" type="line" smooth="yes"/>
      <point x="359" y="708"/>
      <point x="392" y="734"/>
      <point x="479" y="734" type="curve" smooth="yes"/>
      <point x="541" y="734"/>
      <point x="587" y="723"/>
      <point x="614" y="711" type="curve"/>
      <point x="610" y="723"/>
      <point x="598" y="738"/>
      <point x="562" y="741" type="curve"/>
      <point x="538" y="654" type="line"/>
      <point x="632" y="654" type="line"/>
      <point x="663" y="763" type="line"/>
      <point x="635" y="774"/>
      <point x="569" y="790"/>
    </contour>
  </outline>
</glyph>
<glyph name="f.short" format="2">
  <advance width="497"/>
  <outline>
    <contour>
      <point x="93" y="565" type="line"/>
      <point x="77" y="509" type="line"/>
      <point x="508" y="509" type="line"/>
      <point x="523" y="565" type="line"/>
    </contour>
    <contour>
      <point x="132" y="-223" type="line"/>
      <point x="341" y="635" type="line" smooth="yes"/>
      <point x="359" y="707"/>
      <point x="388" y="729"/>
      <point x="454" y="729" type="curve" smooth="yes"/>
      <point x="501" y="729"/>
      <point x="537" y="720"/>
      <point x="561" y="715" type="curve"/>
      <point x="578" y="776" type="line"/>
      <point x="557" y="782"/>
      <point x="511" y="790"/>
      <point x="461" y="790" type="curve" smooth="yes"/>
      <point x="334" y="790"/>
      <point x="270" y="747"/>
      <point x="247" y="645" type="curve" smooth="yes"/>
      <point x="54" y="-223" type="line"/>
    </contour>
  </outline>
</glyph>
<glyph name="f_f_j.alt" format="2">
  <advance width="1302"/>
  <outline>
    <contour>
      <point x="93" y="565" type="line"/>
      <point x="77" y="509" type="line"/>
      <point x="553" y="509" type="line"/>
      <point x="568" y="565" type="line"/>
    </contour>
    <contour>
      <point x="816" y="-250" type="curve" smooth="yes"/>
      <point x="933" y="-250"/>
      <point x="996" y="-199"/>
      <point x="1028" y="-80" type="curve" smooth="yes"/>
      <point x="1203" y="565" type="line"/>
      <point x="522" y="565" type="line"/>
      <point x="506" y="509" type="line"/>
      <point x="945" y="509" type="line" smooth="yes"/>
      <point x="1021" y="509"/>
      <point x="1089" y="489"/>
      <point x="1083" y="466" type="curve" smooth="yes"/>
      <point x="934" y="-88" type="line" smooth="yes"/>
      <point x="913" y="-164"/>
      <point x="891" y="-192"/>
      <point x="819" y="-192" type="curve" smooth="yes"/>
      <point x="778" y="-192"/>
      <point x="742" y="-182"/>
      <point x="714" y="-172" type="curve"/>
      <point x="697" y="-230" type="line"/>
      <point x="718" y="-239"/>
      <point x="764" y="-250"/>
    </contour>
    <contour>
      <point x="483" y="-223" type="line"/>
      <point x="561" y="-223" type="line"/>
      <point x="769" y="632" type="line" smooth="yes"/>
      <point x="788" y="708"/>
      <point x="834" y="734"/>
      <point x="969" y="734" type="curve" smooth="yes"/>
      <point x="1056" y="734"/>
      <point x="1125" y="720"/>
      <point x="1164" y="708" type="curve"/>
      <point x="1162" y="721"/>
      <point x="1150" y="736"/>
      <point x="1112" y="738" type="curve"/>
      <point x="1088" y="651" type="line"/>
      <point x="1183" y="651" type="line"/>
      <point x="1213" y="759" type="line"/>
      <point x="1178" y="771"/>
      <point x="1088" y="790"/>
      <point x="981" y="790" type="curve" smooth="yes"/>
      <point x="781" y="790"/>
      <point x="698" y="742"/>
      <point x="675" y="642" type="curve" smooth="yes"/>
    </contour>
    <contour>
      <point x="54" y="-223" type="line"/>
      <point x="132" y="-223" type="line"/>
      <point x="337" y="618" type="line" smooth="yes"/>
      <point x="356" y="696"/>
      <point x="400" y="719"/>
      <point x="527" y="719" type="curve" smooth="yes"/>
      <point x="640" y="719"/>
      <point x="714" y="695"/>
      <point x="751" y="670" type="curve"/>
      <point x="749" y="694"/>
      <point x="735" y="721"/>
      <point x="695" y="724" type="curve"/>
      <point x="674" y="635" type="line"/>
      <point x="760" y="636" type="line"/>
      <point x="789" y="722" type="line"/>
      <point x="758" y="741"/>
      <point x="667" y="775"/>
      <point x="532" y="775" type="curve" smooth="yes"/>
      <point x="345" y="775"/>
      <point x="266" y="728"/>
      <point x="243" y="627" type="curve" smooth="yes"/>
    </contour>
  </outline>
</glyph>
<glyph name="f_i" format="2">
  <advance width="874"/>
  <outline>
    <contour>
      <point x="747" y="680" type="curve" smooth="yes"/>
      <point x="792" y="680"/>
      <point x="827" y="698"/>
      <point x="827" y="744" type="curve" smooth="yes"/>
      <point x="827" y="787"/>
      <point x="792" y="806"/>
      <point x="747" y="806" type="curve" smooth="yes"/>
      <point x="700" y="806"/>
      <point x="668" y="787"/>
      <point x="668" y="744" type="curve" smooth="yes"/>
      <point x="668" y="698"/>
      <point x="700" y="680"/>
    </contour>
    <contour>
      <point x="93" y="565" type="line"/>
      <point x="77" y="509" type="line"/>
      <point x="518" y="509" type="line" smooth="yes"/>
      <point x="593" y="509"/>
      <point x="663" y="489"/>
      <point x="656" y="466" type="curve" smooth="yes"/>
      <point x="584" y="223" type="line" smooth="yes"/>
      <point x="551" y="117"/>
      <point x="541" y="86"/>
      <point x="541" y="58" type="curve" smooth="yes"/>
      <point x="541" y="20"/>
      <point x="577" y="0"/>
      <point x="637" y="0" type="curve" smooth="yes"/>
      <point x="681" y="0"/>
      <point x="725" y="0"/>
      <point x="769" y="0" type="curve"/>
      <point x="781" y="57" type="line"/>
      <point x="740" y="57"/>
      <point x="701" y="57"/>
      <point x="660" y="57" type="curve" smooth="yes"/>
      <point x="643" y="57"/>
      <point x="635" y="62"/>
      <point x="635" y="74" type="curve" smooth="yes"/>
      <point x="635" y="86"/>
      <point x="644" y="121"/>
      <point x="673" y="218" type="curve" smooth="yes"/>
      <point x="777" y="565" type="line"/>
    </contour>
    <contour>
      <point x="448" y="729" type="curve" smooth="yes"/>
      <point x="490" y="729"/>
      <point x="518" y="723"/>
      <point x="540" y="719" type="curve"/>
      <point x="557" y="780" type="line"/>
      <point x="536" y="785"/>
      <point x="498" y="790"/>
      <point x="454" y="790" type="curve" smooth="yes"/>
      <point x="328" y="790"/>
      <point x="270" y="747"/>
      <point x="247" y="645" type="curve" smooth="yes"/>
      <point x="54" y="-223" type="line"/>
      <point x="132" y="-223" type="line"/>
      <point x="341" y="635" type="line" smooth="yes"/>
      <point x="359" y="707"/>
      <point x="380" y="729"/>
    </contour>
  </outline>
</glyph>
<glyph name="f_j.alt" format="2">
  <advance width="844"/>
  <outline>
    <contour>
      <point x="54" y="-223" type="line"/>
      <point x="132" y="-223" type="line"/>
      <point x="340" y="632" type="line" smooth="yes"/>
      <point x="359" y="708"/>
      <point x="406" y="734"/>
      <point x="540" y="734" type="curve" smooth="yes"/>
      <point x="627" y="734"/>
      <point x="696" y="720"/>
      <point x="735" y="708" type="curve"/>
      <point x="733" y="719"/>
      <point x="718" y="734"/>
      <point x="683" y="738" type="curve"/>
      <point x="659" y="651" type="line"/>
      <point x="754" y="651" type="line"/>
      <point x="785" y="759" type="line"/>
      <point x="749" y="771"/>
      <point x="660" y="790"/>
      <point x="552" y="790" type="curve" smooth="yes"/>
      <point x="352" y="790"/>
      <point x="269" y="742"/>
      <point x="247" y="642" type="curve" smooth="yes"/>
    </contour>
    <contour>
      <point x="388" y="-250" type="curve" smooth="yes"/>
      <point x="504" y="-250"/>
      <point x="567" y="-199"/>
      <point x="600" y="-80" type="curve" smooth="yes"/>
      <point x="775" y="565" type="line"/>
      <point x="93" y="565" type="line"/>
      <point x="77" y="509" type="line"/>
      <point x="517" y="509" type="line" smooth="yes"/>
      <point x="592" y="509"/>
      <point x="660" y="489"/>
      <point x="654" y="466" type="curve" smooth="yes"/>
      <point x="505" y="-88" type="line" smooth="yes"/>
      <point x="485" y="-164"/>
      <point x="462" y="-192"/>
      <point x="390" y="-192" type="curve" smooth="yes"/>
      <point x="349" y="-192"/>
      <point x="314" y="-182"/>
      <point x="285" y="-172" type="curve"/>
      <point x="268" y="-230" type="line"/>
      <point x="290" y="-239"/>
      <point x="336" y="-250"/>
    </contour>
  </outline>
</glyph>
<glyph name="five.lintab" format="2">
  <advance width="686"/>
  <outline>
    <contour>
      <point x="278" y="-11" type="curve" smooth="yes"/>
      <point x="490" y="-11"/>
      <point x="596" y="140"/>
      <point x="596" y="299" type="curve" smooth="yes"/>
      <point x="596" y="411"/>
      <point x="514" y="470"/>
      <point x="396" y="470" type="curve" smooth="yes"/>
      <point x="292" y="470"/>
      <point x="222" y="423"/>
      <point x="159" y="334" type="curve"/>
      <point x="188" y="349" type="line"/>
      <point x="292" y="690" type="line"/>
      <point x="250" y="641" type="line"/>
      <point x="616" y="641" type="line"/>
      <point x="662" y="710" type="line"/>
      <point x="229" y="710" type="line"/>
      <point x="108" y="315" type="line"/>
      <point x="172" y="315" type="line"/>
      <point x="229" y="381"/>
      <point x="294" y="414"/>
      <point x="376" y="414" type="curve" smooth="yes"/>
      <point x="453" y="414"/>
      <point x="496" y="374"/>
      <point x="496" y="303" type="curve" smooth="yes"/>
      <point x="496" y="170"/>
      <point x="435" y="44"/>
      <point x="280" y="44" type="curve" smooth="yes"/>
      <point x="140" y="44"/>
      <point x="104" y="122"/>
      <point x="84" y="182" type="curve"/>
      <point x="12" y="156" type="line"/>
      <point x="41" y="66"/>
      <point x="111" y="-11"/>
    </contour>
  </outline>
</glyph>
<glyph name="four.linprop" format="2">
  <advance width="756"/>
  <outline>
    <contour>
      <point x="581" y="710" type="line"/>
      <point x="582" y="698" type="line"/>
      <point x="397" y="92" type="line" smooth="yes"/>
      <point x="388" y="63"/>
      <point x="342" y="56"/>
      <point x="282" y="56" type="curve" smooth="yes"/>
      <point x="237" y="56" type="line"/>
      <point x="219" y="0" type="line"/>
      <point x="606" y="0" type="line"/>
      <point x="623" y="56" type="line"/>
      <point x="582" y="56" type="line" smooth="yes"/>
      <point x="522" y="56"/>
      <point x="480" y="63"/>
      <point x="489" y="92" type="curve" smooth="yes"/>
      <point x="678" y="710" type="line"/>
    </contour>
    <contour>
      <point x="20" y="215" type="line"/>
      <point x="686" y="215" type="line"/>
      <point x="704" y="276" type="line"/>
      <point x="74" y="276" type="line"/>
      <point x="77" y="241" type="line"/>
      <point x="594" y="685" type="line"/>
      <point x="608" y="710" type="line"/>
      <point x="535" y="710" type="line"/>
      <point x="42" y="288" type="line"/>
    </contour>
  </outline>
</glyph>
<glyph name="hungarumlaut.uc" format="2">
  <advance width="613"/>
  <anchor x="323" y="694" name="_top"/>
  <outline>
    <contour>
      <point x="150" y="926" type="curve" smooth="yes"/>
      <point x="75" y="817" type="line"/>
      <point x="71" y="793" type="line"/>
      <point x="111" y="793" type="line"/>
      <point x="218" y="861" type="line" smooth="yes"/>
      <point x="260" y="889"/>
      <point x="282" y="907"/>
      <point x="282" y="932" type="curve" smooth="yes"/>
      <point x="282" y="955"/>
      <point x="260" y="974"/>
      <point x="226" y="974" type="curve" smooth="yes"/>
      <point x="189" y="974"/>
      <point x="169" y="954"/>
    </contour>
    <contour>
      <point x="385" y="926" type="curve" smooth="yes"/>
      <point x="310" y="817" type="line"/>
      <point x="306" y="793" type="line"/>
      <point x="346" y="793" type="line"/>
      <point x="453" y="861" type="line" smooth="yes"/>
      <point x="496" y="889"/>
      <point x="517" y="907"/>
      <point x="517" y="932" type="curve" smooth="yes"/>
      <point x="517" y="955"/>
      <point x="495" y="974"/>
      <point x="461" y="974" type="curve" smooth="yes"/>
      <point x="424" y="974"/>
      <point x="404" y="954"/>
    </contour>
  </outline>
</glyph>
<glyph name="lira.alt" format="2">
  <advance width="686"/>
  <outline>
    <contour>
      <point x="-40" y="0" type="line"/>
      <point x="556" y="0" type="line"/>
      <point x="612" y="188" type="line"/>
      <point x="540" y="188" type="line"/>
      <point x="499" y="108" type="line" smooth="yes"/>
      <point x="481" y="72"/>
      <point x="438" y="63"/>
      <point x="333" y="63" type="curve" smooth="yes"/>
      <point x="10" y="63" type="line"/>
      <point x="38" y="44" type="line"/>
      <point x="213" y="103"/>
      <point x="291" y="205"/>
      <point x="291" y="311" type="curve" smooth="yes"/>
      <point x="291" y="398"/>
      <point x="256" y="458"/>
      <point x="256" y="534" type="curve" smooth="yes"/>
      <point x="256" y="628"/>
      <point x="311" y="681"/>
      <point x="448" y="681" type="curve" smooth="yes"/>
      <point x="548" y="681"/>
      <point x="607" y="665"/>
      <point x="646" y="639" type="curve"/>
      <point x="642" y="652"/>
      <point x="625" y="681"/>
      <point x="590" y="686" type="curve"/>
      <point x="550" y="563" type="line"/>
      <point x="650" y="563" type="line"/>
      <point x="690" y="692" type="line"/>
      <point x="657" y="707"/>
      <point x="581" y="735"/>
      <point x="447" y="735" type="curve" smooth="yes"/>
      <point x="259" y="735"/>
      <point x="157" y="658"/>
      <point x="157" y="537" type="curve" smooth="yes"/>
      <point x="157" y="456"/>
      <point x="203" y="389"/>
      <point x="203" y="292" type="curve" smooth="yes"/>
      <point x="203" y="192"/>
      <point x="118" y="112"/>
      <point x="-21" y="64" type="curve"/>
    </contour>
    <contour>
      <point x="21" y="304" type="line"/>
      <point x="5" y="254" type="line"/>
      <point x="491" y="254" type="line"/>
      <point x="506" y="304" type="line"/>
    </contour>
    <contour>
      <point x="65" y="472" type="line"/>
      <point x="51" y="422" type="line"/>
      <point x="535" y="422" type="line"/>
      <point x="550" y="472" type="line"/>
    </contour>
  </outline>
</glyph>
<glyph name="lira.altprop" format="2">
  <advance width="773"/>
  <outline>
    <contour>
      <point x="100" y="479" type="line"/>
      <point x="84" y="429" type="line"/>
      <point x="601" y="429" type="line"/>
      <point x="617" y="479" type="line"/>
    </contour>
    <contour>
      <point x="-10" y="0" type="line"/>
      <point x="634" y="0" type="line"/>
      <point x="693" y="198" type="line"/>
      <point x="620" y="198" type="line"/>
      <point x="573" y="108" type="line" smooth="yes"/>
      <point x="554" y="72"/>
      <point x="511" y="63"/>
      <point x="406" y="63" type="curve" smooth="yes"/>
      <point x="41" y="63" type="line"/>
      <point x="71" y="42" type="line"/>
      <point x="242" y="100"/>
      <point x="334" y="191"/>
      <point x="334" y="306" type="curve" smooth="yes"/>
      <point x="334" y="382"/>
      <point x="297" y="458"/>
      <point x="297" y="529" type="curve" smooth="yes"/>
      <point x="297" y="626"/>
      <point x="355" y="680"/>
      <point x="507" y="680" type="curve" smooth="yes"/>
      <point x="610" y="680"/>
      <point x="671" y="665"/>
      <point x="724" y="634" type="curve"/>
      <point x="718" y="654"/>
      <point x="701" y="681"/>
      <point x="666" y="686" type="curve"/>
      <point x="630" y="570" type="line"/>
      <point x="730" y="570" type="line"/>
      <point x="765" y="685" type="line"/>
      <point x="730" y="703"/>
      <point x="644" y="735"/>
      <point x="508" y="735" type="curve" smooth="yes"/>
      <point x="314" y="735"/>
      <point x="200" y="661"/>
      <point x="200" y="535" type="curve" smooth="yes"/>
      <point x="200" y="463"/>
      <point x="250" y="390"/>
      <point x="250" y="300" type="curve" smooth="yes"/>
      <point x="250" y="179"/>
      <point x="153" y="112"/>
      <point x="10" y="64" type="curve"/>
    </contour>
    <contour>
      <point x="44" y="297" type="line"/>
      <point x="29" y="247" type="line"/>
      <point x="545" y="247" type="line"/>
      <point x="561" y="297" type="line"/>
    </contour>
  </outline>
</glyph>
<glyph name="lira.proportional" format="2">
  <advance width="779"/>
  <outline>
    <contour>
      <point x="242" y="153" type="line"/>
      <point x="322" y="45"/>
      <point x="352" y="-10"/>
      <point x="483" y="-10" type="curve" smooth="yes"/>
      <point x="606" y="-10"/>
      <point x="663" y="56"/>
      <point x="713" y="174" type="curve"/>
      <point x="653" y="192" type="line"/>
      <point x="608" y="103"/>
      <point x="579" y="67"/>
      <point x="491" y="67" type="curve" smooth="yes"/>
      <point x="398" y="67"/>
      <point x="355" y="105"/>
      <point x="288" y="196" type="curve"/>
    </contour>
    <contour>
      <point x="102" y="471" type="line"/>
      <point x="86" y="418" type="line"/>
      <point x="598" y="418" type="line"/>
      <point x="613" y="471" type="line"/>
    </contour>
    <contour>
      <point x="51" y="297" type="line"/>
      <point x="36" y="244" type="line"/>
      <point x="547" y="244" type="line"/>
      <point x="562" y="297" type="line"/>
    </contour>
    <contour>
      <point x="519" y="735" type="curve" smooth="yes"/>
      <point x="329" y="735"/>
      <point x="211" y="663"/>
      <point x="211" y="530" type="curve" smooth="yes"/>
      <point x="211" y="458"/>
      <point x="258" y="386"/>
      <point x="258" y="292" type="curve" smooth="yes"/>
      <point x="258" y="172"/>
      <point x="175" y="92"/>
      <point x="2" y="53" type="curve"/>
      <point x="-18" y="-12" type="line"/>
      <point x="219" y="38"/>
      <point x="337" y="146"/>
      <point x="337" y="303" type="curve" smooth="yes"/>
      <point x="337" y="390"/>
      <point x="307" y="461"/>
      <point x="307" y="528" type="curve" smooth="yes"/>
      <point x="307" y="631"/>
      <point x="371" y="680"/>
      <point x="518" y="680" type="curve" smooth="yes"/>
      <point x="611" y="680"/>
      <point x="665" y="662"/>
      <point x="715" y="642" type="curve"/>
      <point x="712" y="645"/>
      <point x="691" y="681"/>
      <point x="657" y="686" type="curve"/>
      <point x="616" y="556" type="line"/>
      <point x="716" y="556" type="line"/>
      <point x="757" y="690" type="line"/>
      <point x="729" y="706"/>
      <point x="646" y="735"/>
    </contour>
  </outline>
</glyph>
<glyph name="naira.proportional" format="2">
  <advance width="880"/>
  <outline>
    <contour>
      <point x="83" y="433" type="line"/>
      <point x="247" y="433" type="line"/>
      <point x="267" y="492" type="line"/>
      <point x="101" y="492" type="line"/>
    </contour>
    <contour>
      <point x="424" y="466" type="line"/>
      <point x="688" y="444" type="line"/>
      <point x="696" y="433" type="line"/>
      <point x="869" y="433" type="line"/>
      <point x="886" y="492" type="line"/>
      <point x="433" y="492" type="line"/>
    </contour>
    <contour>
      <point x="619" y="216" type="line"/>
      <point x="803" y="216" type="line"/>
      <point x="820" y="275" type="line"/>
      <point x="639" y="275" type="line"/>
    </contour>
    <contour>
      <point x="17" y="216" type="line"/>
      <point x="489" y="216" type="line"/>
      <point x="496" y="243" type="line"/>
      <point x="205" y="263" type="line"/>
      <point x="208" y="275" type="line"/>
      <point x="34" y="275" type="line"/>
    </contour>
    <contour>
      <point x="-8" y="0" type="line"/>
      <point x="235" y="0" type="line"/>
      <point x="252" y="56" type="line"/>
      <point x="235" y="56" type="line" smooth="yes"/>
      <point x="198" y="56"/>
      <point x="173" y="62"/>
      <point x="176" y="69" type="curve" smooth="yes"/>
      <point x="367" y="696" type="line"/>
      <point x="355" y="698" type="line"/>
      <point x="483" y="0" type="line"/>
      <point x="595" y="0" type="line"/>
      <point x="784" y="613" type="line" smooth="yes"/>
      <point x="792" y="642"/>
      <point x="826" y="654"/>
      <point x="867" y="654" type="curve" smooth="yes"/>
      <point x="893" y="654" type="line"/>
      <point x="911" y="710" type="line"/>
      <point x="672" y="710" type="line"/>
      <point x="655" y="654" type="line"/>
      <point x="672" y="654" type="line" smooth="yes"/>
      <point x="709" y="654"/>
      <point x="730" y="648"/>
      <point x="728" y="641" type="curve" smooth="yes"/>
      <point x="542" y="35" type="line"/>
      <point x="559" y="18" type="line"/>
      <point x="433" y="710" type="line"/>
      <point x="210" y="710" type="line"/>
      <point x="193" y="654" type="line"/>
      <point x="220" y="654" type="line" smooth="yes"/>
      <point x="260" y="654"/>
      <point x="288" y="647"/>
      <point x="280" y="618" type="curve" smooth="yes"/>
      <point x="120" y="97" type="line" smooth="yes"/>
      <point x="111" y="68"/>
      <point x="77" y="56"/>
      <point x="37" y="56" type="curve" smooth="yes"/>
      <point x="10" y="56" type="line"/>
    </contour>
  </outline>
</glyph>
<glyph name="nine.linprop" format="2">
  <advance width="712"/>
  <outline>
    <contour>
      <point x="31" y="40" type="line"/>
      <point x="285" y="51"/>
      <point x="435" y="133"/>
      <point x="509" y="259" type="curve" smooth="yes"/>
      <point x="554" y="333"/>
      <point x="572" y="423"/>
      <point x="572" y="519" type="curve" smooth="yes"/>
      <point x="572" y="640"/>
      <point x="511" y="680"/>
      <point x="396" y="680" type="curve" smooth="yes"/>
      <point x="291" y="680"/>
      <point x="225" y="631"/>
      <point x="192" y="561" type="curve" smooth="yes"/>
      <point x="176" y="526"/>
      <point x="167" y="484"/>
      <point x="167" y="442" type="curve" smooth="yes"/>
      <point x="167" y="374"/>
      <point x="212" y="323"/>
      <point x="317" y="323" type="curve" smooth="yes"/>
      <point x="434" y="323"/>
      <point x="493" y="383"/>
      <point x="579" y="474" type="curve"/>
      <point x="575" y="425" type="line"/>
      <point x="506" y="340"/>
      <point x="422" y="268"/>
      <point x="296" y="268" type="curve" smooth="yes"/>
      <point x="153" y="268"/>
      <point x="67" y="342"/>
      <point x="67" y="449" type="curve" smooth="yes"/>
      <point x="67" y="577"/>
      <point x="173" y="735"/>
      <point x="399" y="735" type="curve"/>
      <point x="571" y="735"/>
      <point x="670" y="663"/>
      <point x="670" y="509" type="curve" smooth="yes"/>
      <point x="670" y="203"/>
      <point x="452" y="-3"/>
      <point x="28" y="-15" type="curve"/>
    </contour>
  </outline>
</glyph>
<glyph name="one.linprop" format="2">
  <advance width="645"/>
  <outline>
    <contour>
      <point x="325" y="86" type="curve" smooth="yes"/>
      <point x="516" y="710" type="line"/>
      <point x="447" y="710" type="line"/>
      <point x="388" y="643"/>
      <point x="315" y="622"/>
      <point x="176" y="621" type="curve"/>
      <point x="156" y="556" type="line"/>
      <point x="280" y="555"/>
      <point x="379" y="592"/>
      <point x="422" y="664" type="curve"/>
      <point x="401" y="644" type="line"/>
      <point x="230" y="86" type="line" smooth="yes"/>
      <point x="221" y="57"/>
      <point x="170" y="50"/>
      <point x="86" y="50" type="curve" smooth="yes"/>
      <point x="23" y="50" type="line"/>
      <point x="7" y="0" type="line"/>
      <point x="490" y="0" type="line"/>
      <point x="506" y="50" type="line"/>
      <point x="458" y="50" type="line" smooth="yes"/>
      <point x="367" y="50"/>
      <point x="316" y="57"/>
    </contour>
  </outline>
</glyph>
<glyph name="one.midprop" format="2">
  <advance width="656"/>
  <outline>
    <contour>
      <point x="339" y="86" type="curve" smooth="yes"/>
      <point x="511" y="650" type="line"/>
      <point x="443" y="650" type="line"/>
      <point x="377" y="569"/>
      <point x="294" y="547"/>
      <point x="162" y="544" type="curve"/>
      <point x="142" y="479" type="line"/>
      <point x="263" y="479"/>
      <point x="371" y="517"/>
      <point x="414" y="598" type="curve"/>
      <point x="394" y="584" type="line"/>
      <point x="242" y="86" type="line" smooth="yes"/>
      <point x="233" y="57"/>
      <point x="182" y="50"/>
      <point x="98" y="50" type="curve" smooth="yes"/>
      <point x="36" y="50" type="line"/>
      <point x="21" y="0" type="line"/>
      <point x="504" y="0" type="line"/>
      <point x="519" y="50" type="line"/>
      <point x="473" y="50" type="line" smooth="yes"/>
      <point x="382" y="50"/>
      <point x="330" y="57"/>
    </contour>
  </outline>
</glyph>
<glyph name="ring.uc" format="2">
  <advance width="613"/>
  <anchor x="305" y="731" name="_top"/>
  <outline>
    <contour>
      <point x="293" y="830" type="curve" smooth="yes"/>
      <point x="241" y="830"/>
      <point x="210" y="851"/>
      <point x="210" y="890" type="curve" smooth="yes"/>
      <point x="210" y="934"/>
      <point x="238" y="974"/>
      <point x="302" y="974" type="curve" smooth="yes"/>
      <point x="354" y="974"/>
      <point x="385" y="953"/>
      <point x="385" y="914" type="curve" smooth="yes"/>
      <point x="385" y="870"/>
      <point x="356" y="830"/>
    </contour>
    <contour>
      <point x="292" y="784" type="curve" smooth="yes"/>
      <point x="401" y="784"/>
      <point x="469" y="839"/>
      <point x="469" y="910" type="curve" smooth="yes"/>
      <point x="469" y="972"/>
      <point x="415" y="1020"/>
      <point x="303" y="1020" type="curve" smooth="yes"/>
      <point x="194" y="1020"/>
      <point x="126" y="965"/>
      <point x="126" y="894" type="curve" smooth="yes"/>
      <point x="126" y="832"/>
      <point x="180" y="784"/>
    </contour>
  </outline>
</glyph>
<glyph name="rupeeIndian" format="2">
  <advance width="686"/>
  <outline>
    <contour>
      <point x="123" y="509" type="line"/>
      <point x="108" y="461" type="line"/>
      <point x="690" y="461" type="line"/>
      <point x="705" y="509" type="line"/>
    </contour>
    <contour>
      <point x="115" y="275" type="line"/>
      <point x="170" y="275" type="line" smooth="yes"/>
      <point x="390" y="275"/>
      <point x="542" y="354"/>
      <point x="542" y="511" type="curve" smooth="yes"/>
      <point x="542" y="603"/>
      <point x="463" y="661"/>
      <point x="329" y="671" type="curve"/>
      <point x="310" y="662" type="line"/>
      <point x="753" y="662" type="line"/>
      <point x="768" y="710" type="line"/>
      <point x="185" y="710" type="line"/>
      <point x="167" y="651" type="line"/>
      <point x="266" y="651" type="line"/>
      <point x="402" y="651"/>
      <point x="448" y="606"/>
      <point x="448" y="518" type="curve" smooth="yes"/>
      <point x="448" y="391"/>
      <point x="366" y="314"/>
      <point x="186" y="314" type="curve" smooth="yes"/>
      <point x="82" y="314" type="line"/>
      <point x="69" y="271" type="line"/>
      <point x="324" y="0" type="line"/>
      <point x="464" y="0" type="line"/>
      <point x="482" y="56" type="line"/>
      <point x="439" y="56" type="line" smooth="yes"/>
      <point x="394" y="56"/>
      <point x="378" y="64"/>
      <point x="360" y="84" type="curve" smooth="yes"/>
      <point x="160" y="292" type="line"/>
    </contour>
  </outline>
</glyph>
<glyph name="six.linprop" format="2">
  <advance width="712"/>
  <outline>
    <contour>
      <point x="684" y="685" type="line"/>
      <point x="450" y="672"/>
      <point x="304" y="594"/>
      <point x="223" y="483" type="curve" smooth="yes"/>
      <point x="163" y="400"/>
      <point x="140" y="300"/>
      <point x="140" y="196" type="curve" smooth="yes"/>
      <point x="140" y="86"/>
      <point x="205" y="45"/>
      <point x="313" y="45" type="curve" smooth="yes"/>
      <point x="428" y="45"/>
      <point x="495" y="105"/>
      <point x="527" y="186" type="curve" smooth="yes"/>
      <point x="541" y="221"/>
      <point x="547" y="261"/>
      <point x="547" y="301" type="curve" smooth="yes"/>
      <point x="547" y="371"/>
      <point x="510" y="413"/>
      <point x="405" y="413" type="curve" smooth="yes"/>
      <point x="288" y="413"/>
      <point x="220" y="353"/>
      <point x="132" y="263" type="curve"/>
      <point x="137" y="311" type="line"/>
      <point x="207" y="396"/>
      <point x="300" y="468"/>
      <point x="425" y="468" type="curve" smooth="yes"/>
      <point x="569" y="468"/>
      <point x="647" y="403"/>
      <point x="647" y="293" type="curve" smooth="yes"/>
      <point x="647" y="159"/>
      <point x="543" y="-10"/>
      <point x="310" y="-10" type="curve" smooth="yes"/>
      <point x="148" y="-10"/>
      <point x="42" y="63"/>
      <point x="42" y="207" type="curve" smooth="yes"/>
      <point x="42" y="497"/>
      <point x="261" y="722"/>
      <point x="688" y="740" type="curve"/>
    </contour>
  </outline>
</glyph>
<glyph name="six.midprop" format="2">
  <advance width="712"/>
  <outline>
    <contour>
      <point x="688" y="685" type="line"/>
      <point x="447" y="671"/>
      <point x="300" y="590"/>
      <point x="221" y="474" type="curve" smooth="yes"/>
      <point x="166" y="393"/>
      <point x="144" y="296"/>
      <point x="144" y="196" type="curve" smooth="yes"/>
      <point x="144" y="86"/>
      <point x="210" y="45"/>
      <point x="317" y="45" type="curve" smooth="yes"/>
      <point x="434" y="45"/>
      <point x="503" y="107"/>
      <point x="532" y="190" type="curve" smooth="yes"/>
      <point x="545" y="224"/>
      <point x="551" y="263"/>
      <point x="551" y="301" type="curve" smooth="yes"/>
      <point x="551" y="371"/>
      <point x="513" y="413"/>
      <point x="408" y="413" type="curve" smooth="yes"/>
      <point x="292" y="413"/>
      <point x="223" y="353"/>
      <point x="136" y="263" type="curve"/>
      <point x="141" y="311" type="line"/>
      <point x="211" y="396"/>
      <point x="305" y="468"/>
      <point x="430" y="468" type="curve" smooth="yes"/>
      <point x="573" y="468"/>
      <point x="651" y="403"/>
      <point x="651" y="293" type="curve" smooth="yes"/>
      <point x="651" y="159"/>
      <point x="547" y="-10"/>
      <point x="314" y="-10" type="curve" smooth="yes"/>
      <point x="152" y="-10"/>
      <point x="46" y="63"/>
      <point x="46" y="207" type="curve" smooth="yes"/>
      <point x="46" y="497"/>
      <point x="265" y="722"/>
      <point x="692" y="740" type="curve"/>
    </contour>
  </outline>
</glyph>
<glyph name="slash.uc" format="2">
  <advance width="620"/>
  <outline>
    <contour>
      <point x="633" y="760" type="line"/>
      <point x="-78" y="-60" type="line"/>
      <point x="13" y="-60" type="line"/>
      <point x="723" y="760" type="line"/>
    </contour>
  </outline>
</glyph>
<glyph name="three.lintab" format="2">
  <advance width="685"/>
  <outline>
    <contour>
      <point x="283" y="-11" type="curve" smooth="yes"/>
      <point x="459" y="-11"/>
      <point x="581" y="72"/>
      <point x="581" y="207" type="curve" smooth="yes"/>
      <point x="581" y="299"/>
      <point x="508" y="363"/>
      <point x="335" y="374" type="curve"/>
      <point x="369" y="359" type="line"/>
      <point x="378" y="387" type="line"/>
      <point x="342" y="373" type="line"/>
      <point x="524" y="374"/>
      <point x="640" y="451"/>
      <point x="640" y="574" type="curve" smooth="yes"/>
      <point x="640" y="676"/>
      <point x="552" y="735"/>
      <point x="398" y="735" type="curve" smooth="yes"/>
      <point x="301" y="735"/>
      <point x="225" y="705"/>
      <point x="188" y="688" type="curve"/>
      <point x="144" y="530" type="line"/>
      <point x="239" y="530" type="line"/>
      <point x="282" y="683" type="line"/>
      <point x="247" y="682"/>
      <point x="217" y="657"/>
      <point x="217" y="637" type="curve"/>
      <point x="246" y="655"/>
      <point x="301" y="681"/>
      <point x="386" y="681" type="curve" smooth="yes"/>
      <point x="493" y="681"/>
      <point x="542" y="646"/>
      <point x="542" y="569" type="curve" smooth="yes"/>
      <point x="542" y="473"/>
      <point x="473" y="402"/>
      <point x="321" y="402" type="curve" smooth="yes"/>
      <point x="221" y="402" type="line"/>
      <point x="204" y="345" type="line"/>
      <point x="297" y="345" type="line" smooth="yes"/>
      <point x="425" y="345"/>
      <point x="480" y="295"/>
      <point x="480" y="209" type="curve" smooth="yes"/>
      <point x="480" y="111"/>
      <point x="414" y="44"/>
      <point x="284" y="44" type="curve" smooth="yes"/>
      <point x="133" y="44"/>
      <point x="88" y="117"/>
      <point x="57" y="200" type="curve"/>
      <point x="-14" y="178" type="line"/>
      <point x="14" y="73"/>
      <point x="100" y="-11"/>
    </contour>
  </outline>
</glyph>
<glyph name="three.oldtab" format="2">
  <advance width="686"/>
  <outline>
    <contour>
      <point x="270" y="-131" type="curve" smooth="yes"/>
      <point x="446" y="-131"/>
      <point x="567" y="-48"/>
      <point x="567" y="86" type="curve" smooth="yes"/>
      <point x="567" y="177"/>
      <point x="493" y="240"/>
      <point x="320" y="251" type="curve"/>
      <point x="355" y="236" type="line"/>
      <point x="363" y="264" type="line"/>
      <point x="327" y="250" type="line"/>
      <point x="509" y="251"/>
      <point x="623" y="327"/>
      <point x="623" y="450" type="curve" smooth="yes"/>
      <point x="623" y="551"/>
      <point x="533" y="608"/>
      <point x="379" y="608" type="curve" smooth="yes"/>
      <point x="281" y="608"/>
      <point x="206" y="578"/>
      <point x="170" y="561" type="curve"/>
      <point x="126" y="403" type="line"/>
      <point x="221" y="403" type="line"/>
      <point x="264" y="556" type="line"/>
      <point x="229" y="555"/>
      <point x="199" y="531"/>
      <point x="199" y="511" type="curve"/>
      <point x="228" y="528"/>
      <point x="282" y="554"/>
      <point x="368" y="554" type="curve" smooth="yes"/>
      <point x="475" y="554"/>
      <point x="526" y="520"/>
      <point x="526" y="445" type="curve" smooth="yes"/>
      <point x="526" y="349"/>
      <point x="459" y="279"/>
      <point x="306" y="279" type="curve"/>
      <point x="207" y="279" type="line"/>
      <point x="190" y="221" type="line"/>
      <point x="283" y="221" type="line" smooth="yes"/>
      <point x="410" y="221"/>
      <point x="466" y="173"/>
      <point x="466" y="88" type="curve" smooth="yes"/>
      <point x="466" y="-9"/>
      <point x="402" y="-76"/>
      <point x="272" y="-76" type="curve" smooth="yes"/>
      <point x="124" y="-76"/>
      <point x="75" y="-4"/>
      <point x="46" y="81" type="curve"/>
      <point x="-22" y="58" type="line"/>
      <point x="4" y="-47"/>
      <point x="91" y="-131"/>
    </contour>
  </outline>
</glyph>
<glyph name="tilde.uc" format="2">
  <advance width="613"/>
  <anchor x="306" y="694" name="_top"/>
  <outline>
    <contour>
      <point x="389" y="788" type="curve" smooth="yes"/>
      <point x="466" y="788"/>
      <point x="503" y="822"/>
      <point x="551" y="962" type="curve"/>
      <point x="488" y="976" type="line"/>
      <point x="454" y="893"/>
      <point x="440" y="856"/>
      <point x="395" y="856" type="curve" smooth="yes"/>
      <point x="330" y="856"/>
      <point x="337" y="971"/>
      <point x="222" y="971" type="curve" smooth="yes"/>
      <point x="144" y="971"/>
      <point x="106" y="934"/>
      <point x="60" y="800" type="curve"/>
      <point x="124" y="787" type="line"/>
      <point x="155" y="874"/>
      <point x="171" y="906"/>
      <point x="211" y="906" type="curve" smooth="yes"/>
      <point x="273" y="906"/>
      <point x="270" y="788"/>
    </contour>
  </outline>
</glyph>
<glyph name="two.midprop" format="2">
  <advance width="709"/>
  <outline>
    <contour>
      <point x="341" y="62" type="line" smooth="yes"/>
      <point x="442" y="62"/>
      <point x="483" y="69"/>
      <point x="498" y="103" type="curve" smooth="yes"/>
      <point x="542" y="202" type="line"/>
      <point x="614" y="202" type="line"/>
      <point x="555" y="0" type="line"/>
      <point x="-26" y="0" type="line"/>
      <point x="-1" y="83" type="line"/>
      <point x="378" y="273"/>
      <point x="560" y="344"/>
      <point x="560" y="501" type="curve" smooth="yes"/>
      <point x="560" y="579"/>
      <point x="508" y="604"/>
      <point x="403" y="604" type="curve" smooth="yes"/>
      <point x="305" y="604"/>
      <point x="236" y="583"/>
      <point x="192" y="556" type="curve"/>
      <point x="205" y="581"/>
      <point x="249" y="620"/>
      <point x="267" y="603" type="curve"/>
      <point x="218" y="441" type="line"/>
      <point x="117" y="441" type="line"/>
      <point x="169" y="609" type="line"/>
      <point x="213" y="630"/>
      <point x="297" y="660"/>
      <point x="407" y="660" type="curve" smooth="yes"/>
      <point x="568" y="660"/>
      <point x="661" y="614"/>
      <point x="661" y="499" type="curve" smooth="yes"/>
      <point x="661" y="322"/>
      <point x="367" y="210"/>
      <point x="31" y="42" type="curve"/>
      <point x="27" y="62" type="line"/>
    </contour>
  </outline>
</glyph>
<glyph name="yen.proportional" format="2">
  <advance width="782"/>
  <outline>
    <contour>
      <point x="39" y="215" type="line"/>
      <point x="22" y="164" type="line"/>
      <point x="655" y="164" type="line"/>
      <point x="672" y="215" type="line"/>
    </contour>
    <contour>
      <point x="89" y="383" type="line"/>
      <point x="74" y="331" type="line"/>
      <point x="707" y="331" type="line"/>
      <point x="722" y="383" type="line"/>
    </contour>
    <contour>
      <point x="429" y="331" type="line"/>
      <point x="731" y="607" type="line" smooth="yes"/>
      <point x="766" y="640"/>
      <point x="796" y="654"/>
      <point x="828" y="654" type="curve" smooth="yes"/>
      <point x="842" y="654" type="line"/>
      <point x="860" y="710" type="line"/>
      <point x="614" y="710" type="line"/>
      <point x="597" y="654" type="line"/>
      <point x="604" y="654" type="line" smooth="yes"/>
      <point x="641" y="654"/>
      <point x="681" y="644"/>
      <point x="676" y="631" type="curve"/>
      <point x="398" y="370" type="line"/>
      <point x="421" y="372" type="line"/>
      <point x="291" y="643" type="line"/>
      <point x="294" y="650"/>
      <point x="332" y="654"/>
      <point x="369" y="654" type="curve" smooth="yes"/>
      <point x="384" y="654" type="line"/>
      <point x="401" y="710" type="line"/>
      <point x="145" y="710" type="line"/>
      <point x="127" y="654" type="line"/>
      <point x="141" y="654" type="line" smooth="yes"/>
      <point x="175" y="654"/>
      <point x="194" y="649"/>
      <point x="209" y="620" type="curve" smooth="yes"/>
      <point x="352" y="332" type="line"/>
    </contour>
    <contour>
      <point x="449" y="378" type="line"/>
      <point x="359" y="378" type="line"/>
      <point x="272" y="92" type="line" smooth="yes"/>
      <point x="264" y="63"/>
      <point x="216" y="56"/>
      <point x="153" y="56" type="curve" smooth="yes"/>
      <point x="125" y="56" type="line"/>
      <point x="108" y="0" type="line"/>
      <point x="469" y="0" type="line"/>
      <point x="487" y="56" type="line"/>
      <point x="458" y="56" type="line" smooth="yes"/>
      <point x="396" y="56"/>
      <point x="353" y="63"/>
      <point x="361" y="92" type="curve" smooth="yes"/>
    </contour>
  </outline>
</glyph>
<glyph name="zero.midprop" format="2">
  <advance width="741"/>
  <outline>
    <contour>
      <point x="307" y="-11" type="curve" smooth="yes"/>
      <point x="566" y="-11"/>
      <point x="689" y="231"/>
      <point x="689" y="430" type="curve" smooth="yes"/>
      <point x="689" y="570"/>
      <point x="601" y="660"/>
      <point x="436" y="660" type="curve" smooth="yes"/>
      <point x="177" y="660"/>
      <point x="54" y="418"/>
      <point x="54" y="219" type="curve" smooth="yes"/>
      <point x="54" y="79"/>
      <point x="142" y="-11"/>
    </contour>
    <contour>
      <point x="310" y="42" type="curve" smooth="yes"/>
      <point x="200" y="42"/>
      <point x="148" y="94"/>
      <point x="148" y="194" type="curve" smooth="yes"/>
      <point x="148" y="238"/>
      <point x="157" y="294"/>
      <point x="175" y="356" type="curve" smooth="yes"/>
      <point x="227" y="524"/>
      <point x="304" y="607"/>
      <point x="432" y="607" type="curve" smooth="yes"/>
      <point x="542" y="607"/>
      <point x="595" y="554"/>
      <point x="595" y="455" type="curve" smooth="yes"/>
      <point x="595" y="411"/>
      <point x="586" y="354"/>
      <point x="567" y="292" type="curve" smooth="yes"/>
      <point x="516" y="124"/>
      <point x="439" y="42"/>
    </contour>
  </outline>
</glyph>
<glyph name="zero.oldprop" format="2">
  <advance width="744"/>
  <outline>
    <contour>
      <point x="421" y="555" type="curve" smooth="yes"/>
      <point x="542" y="555"/>
      <point x="597" y="501"/>
      <point x="597" y="406" type="curve" smooth="yes"/>
      <point x="597" y="368"/>
      <point x="591" y="325"/>
      <point x="575" y="273" type="curve" smooth="yes"/>
      <point x="529" y="121"/>
      <point x="446" y="42"/>
      <point x="323" y="42" type="curve" smooth="yes"/>
      <point x="202" y="42"/>
      <point x="148" y="96"/>
      <point x="148" y="191" type="curve" smooth="yes"/>
      <point x="148" y="229"/>
      <point x="153" y="273"/>
      <point x="169" y="324" type="curve" smooth="yes"/>
      <point x="216" y="476"/>
      <point x="298" y="555"/>
    </contour>
    <contour>
      <point x="422" y="608" type="curve" smooth="yes"/>
      <point x="171" y="608"/>
      <point x="52" y="388"/>
      <point x="52" y="212" type="curve" smooth="yes"/>
      <point x="52" y="77"/>
      <point x="150" y="-11"/>
      <point x="322" y="-11" type="curve" smooth="yes"/>
      <point x="573" y="-11"/>
      <point x="693" y="210"/>
      <point x="693" y="386" type="curve" smooth="yes"/>
      <point x="693" y="520"/>
      <point x="595" y="608"/>
    </contour>
  </outline>
</glyph>
<glyph name="zero.propslash" format="2">
  <advance width="742"/>
  <outline>
    <contour>
      <point x="127" y="150" type="line"/>
      <point x="620" y="460" type="line"/>
      <point x="609" y="510" type="line"/>
      <point x="112" y="200" type="line"/>
    </contour>
    <contour>
      <point x="307" y="-11" type="curve" smooth="yes"/>
      <point x="566" y="-11"/>
      <point x="689" y="231"/>
      <point x="689" y="430" type="curve" smooth="yes"/>
      <point x="689" y="570"/>
      <point x="601" y="660"/>
      <point x="436" y="660" type="curve" smooth="yes"/>
      <point x="177" y="660"/>
      <point x="54" y="418"/>
      <point x="54" y="219" type="curve" smooth="yes"/>
      <point x="54" y="79"/>
      <point x="142" y="-11"/>
    </contour>
    <contour>
      <point x="310" y="42" type="curve" smooth="yes"/>
      <point x="200" y="42"/>
      <point x="148" y="94"/>
      <point x="148" y="194" type="curve" smooth="yes"/>
      <point x="148" y="238"/>
      <point x="157" y="294"/>
      <point x="175" y="356" type="curve" smooth="yes"/>
      <point x="227" y="524"/>
      <point x="304" y="607"/>
      <point x="432" y="607" type="curve" smooth="yes"/>
      <point x="542" y="607"/>
      <point x="595" y="554"/>
      <point x="595" y="455" type="curve" smooth="yes"/>
      <point x="595" y="411"/>
      <point x="586" y="354"/>
      <point x="567" y="292" type="curve" smooth="yes"/>
      <point x="516" y="124"/>
      <point x="439" y="42"/>
    </contour>
  </outline>
</glyph>
